<svg viewBox="-16 -32 880 192" width="880" height="192" xmlns="http://www.w3.org/2000/svg"><desc>Generated with https://github.com/Platane/snk</desc><style>:root{--cb:#1b1f230a;--cs:orange;--ce:#bfd6f6;--c0:#bfd6f6;--c1:#8dbdff;--c2:#64a1f4;--c3:#4b91f1;--c4:#3c7dd9}.c{shape-rendering:geometricPrecision;fill:var(--ce);stroke-width:1px;stroke:var(--cb);animation:none 31500ms linear infinite;width:12px;height:12px}@keyframes c0{2.21%{fill:var(--c1)}2.23%,100%{fill:var(--ce)}}.c.c0{fill:var(--c1);animation-name:c0}@keyframes c1{58.72%{fill:var(--c2)}58.74%,100%{fill:var(--ce)}}.c.c1{fill:var(--c2);animation-name:c1}@keyframes c2{64.12%{fill:var(--c3)}64.14%,100%{fill:var(--ce)}}.c.c2{fill:var(--c3);animation-name:c2}@keyframes c3{61.89%{fill:var(--c3)}61.91%,100%{fill:var(--ce)}}.c.c3{fill:var(--c3);animation-name:c3}@keyframes c4{55.55%{fill:var(--c2)}55.57%,100%{fill:var(--ce)}}.c.c4{fill:var(--c2);animation-name:c4}@keyframes c5{55.23%{fill:var(--c2)}55.25%,100%{fill:var(--ce)}}.c.c5{fill:var(--c2);animation-name:c5}@keyframes c6{3.8%{fill:var(--c1)}3.82%,100%{fill:var(--ce)}}.c.c6{fill:var(--c1);animation-name:c6}@keyframes c7{56.18%{fill:var(--c2)}56.2%,100%{fill:var(--ce)}}.c.c7{fill:var(--c2);animation-name:c7}@keyframes c8{59.67%{fill:var(--c3)}59.69%,100%{fill:var(--ce)}}.c.c8{fill:var(--c3);animation-name:c8}@keyframes c9{96.82%{fill:var(--c4)}96.84%,100%{fill:var(--ce)}}.c.c9{fill:var(--c4);animation-name:c9}@keyframes ca{54.59%{fill:var(--c2)}54.61%,100%{fill:var(--ce)}}.c.ca{fill:var(--c2);animation-name:ca}@keyframes cb{4.12%{fill:var(--c1)}4.14%,100%{fill:var(--ce)}}.c.cb{fill:var(--c1);animation-name:cb}@keyframes cc{97.77%{fill:var(--c4)}97.79%,100%{fill:var(--ce)}}.c.cc{fill:var(--c4);animation-name:cc}@keyframes cd{59.99%{fill:var(--c3)}60.01%,100%{fill:var(--ce)}}.c.cd{fill:var(--c3);animation-name:cd}@keyframes ce{96.5%{fill:var(--c4)}96.52%,100%{fill:var(--ce)}}.c.ce{fill:var(--c4);animation-name:ce}@keyframes cf{54.28%{fill:var(--c2)}54.3%,100%{fill:var(--ce)}}.c.cf{fill:var(--c2);animation-name:cf}@keyframes cg{4.43%{fill:var(--c1)}4.45%,100%{fill:var(--ce)}}.c.cg{fill:var(--c1);animation-name:cg}@keyframes ch{60.62%{fill:var(--c3)}60.64%,100%{fill:var(--ce)}}.c.ch{fill:var(--c3);animation-name:ch}@keyframes ci{5.7%{fill:var(--c1)}5.72%,100%{fill:var(--ce)}}.c.ci{fill:var(--c1);animation-name:ci}@keyframes cj{5.39%{fill:var(--c1)}5.41%,100%{fill:var(--ce)}}.c.cj{fill:var(--c1);animation-name:cj}@keyframes ck{94.91%{fill:var(--c4)}94.93%,100%{fill:var(--ce)}}.c.ck{fill:var(--c4);animation-name:ck}@keyframes cl{68.56%{fill:var(--c3)}68.58%,100%{fill:var(--ce)}}.c.cl{fill:var(--c3);animation-name:cl}@keyframes cm{7.29%{fill:var(--c1)}7.31%,100%{fill:var(--ce)}}.c.cm{fill:var(--c1);animation-name:cm}@keyframes cn{8.88%{fill:var(--c1)}8.9%,100%{fill:var(--ce)}}.c.cn{fill:var(--c1);animation-name:cn}@keyframes co{10.15%{fill:var(--c1)}10.17%,100%{fill:var(--ce)}}.c.co{fill:var(--c1);animation-name:co}@keyframes cp{7.61%{fill:var(--c1)}7.63%,100%{fill:var(--ce)}}.c.cp{fill:var(--c1);animation-name:cp}@keyframes cq{8.24%{fill:var(--c1)}8.26%,100%{fill:var(--ce)}}.c.cq{fill:var(--c1);animation-name:cq}@keyframes cr{51.74%{fill:var(--c2)}51.76%,100%{fill:var(--ce)}}.c.cr{fill:var(--c2);animation-name:cr}@keyframes cs{9.51%{fill:var(--c1)}9.53%,100%{fill:var(--ce)}}.c.cs{fill:var(--c1);animation-name:cs}@keyframes ct{70.78%{fill:var(--c3)}70.8%,100%{fill:var(--ce)}}.c.ct{fill:var(--c3);animation-name:ct}@keyframes cu{13.01%{fill:var(--c1)}13.03%,100%{fill:var(--ce)}}.c.cu{fill:var(--c1);animation-name:cu}@keyframes cv{14.91%{fill:var(--c1)}14.93%,100%{fill:var(--ce)}}.c.cv{fill:var(--c1);animation-name:cv}@keyframes cw{15.86%{fill:var(--c1)}15.88%,100%{fill:var(--ce)}}.c.cw{fill:var(--c1);animation-name:cw}@keyframes cx{16.5%{fill:var(--c1)}16.52%,100%{fill:var(--ce)}}.c.cx{fill:var(--c1);animation-name:cx}@keyframes cy{47.29%{fill:var(--c2)}47.31%,100%{fill:var(--ce)}}.c.cy{fill:var(--c2);animation-name:cy}@keyframes cz{17.45%{fill:var(--c1)}17.47%,100%{fill:var(--ce)}}.c.cz{fill:var(--c1);animation-name:cz}@keyframes c10{76.5%{fill:var(--c4)}76.52%,100%{fill:var(--ce)}}.c.c10{fill:var(--c4);animation-name:c10}@keyframes c11{22.21%{fill:var(--c1)}22.23%,100%{fill:var(--ce)}}.c.c11{fill:var(--c1);animation-name:c11}@keyframes c12{75.86%{fill:var(--c3)}75.88%,100%{fill:var(--ce)}}.c.c12{fill:var(--c3);animation-name:c12}@keyframes c13{76.18%{fill:var(--c4)}76.2%,100%{fill:var(--ce)}}.c.c13{fill:var(--c4);animation-name:c13}@keyframes c14{21.89%{fill:var(--c1)}21.91%,100%{fill:var(--ce)}}.c.c14{fill:var(--c1);animation-name:c14}@keyframes c15{44.43%{fill:var(--c2)}44.45%,100%{fill:var(--ce)}}.c.c15{fill:var(--c2);animation-name:c15}@keyframes c16{21.26%{fill:var(--c1)}21.28%,100%{fill:var(--ce)}}.c.c16{fill:var(--c1);animation-name:c16}@keyframes c17{18.72%{fill:var(--c1)}18.74%,100%{fill:var(--ce)}}.c.c17{fill:var(--c1);animation-name:c17}@keyframes c18{30.47%{fill:var(--c1)}30.49%,100%{fill:var(--ce)}}.c.c18{fill:var(--c1);animation-name:c18}@keyframes c19{29.2%{fill:var(--c1)}29.22%,100%{fill:var(--ce)}}.c.c19{fill:var(--c1);animation-name:c19}@keyframes c1a{29.83%{fill:var(--c1)}29.85%,100%{fill:var(--ce)}}.c.c1a{fill:var(--c1);animation-name:c1a}@keyframes c1b{38.09%{fill:var(--c2)}38.11%,100%{fill:var(--ce)}}.c.c1b{fill:var(--c2);animation-name:c1b}@keyframes c1c{82.85%{fill:var(--c4)}82.87%,100%{fill:var(--ce)}}.c.c1c{fill:var(--c4);animation-name:c1c}@keyframes c1d{33.32%{fill:var(--c1)}33.34%,100%{fill:var(--ce)}}.c.c1d{fill:var(--c1);animation-name:c1d}@keyframes c1e{34.91%{fill:var(--c2)}34.93%,100%{fill:var(--ce)}}.c.c1e{fill:var(--c2);animation-name:c1e}@keyframes c1f{34.59%{fill:var(--c1)}34.61%,100%{fill:var(--ce)}}.c.c1f{fill:var(--c1);animation-name:c1f}@keyframes c1g{33.96%{fill:var(--c1)}33.98%,100%{fill:var(--ce)}}.c.c1g{fill:var(--c1);animation-name:c1g}.u{transform-origin:0 0;transform:scale(0,1);animation:none linear 31500ms infinite}@keyframes u0{2.21%{transform:scale(0.000,1)}2.23%,3.8%{transform:scale(0.037,1)}3.82%,4.12%{transform:scale(0.074,1)}4.14%,4.43%{transform:scale(0.111,1)}4.45%,5.39%{transform:scale(0.148,1)}5.41%,5.7%{transform:scale(0.185,1)}5.72%,7.29%{transform:scale(0.222,1)}7.31%,7.61%{transform:scale(0.259,1)}7.63%,8.24%{transform:scale(0.296,1)}8.26%,8.88%{transform:scale(0.333,1)}8.9%,9.51%{transform:scale(0.370,1)}9.53%,10.15%{transform:scale(0.407,1)}10.17%,13.01%{transform:scale(0.444,1)}13.03%,14.91%{transform:scale(0.481,1)}14.93%,15.86%{transform:scale(0.519,1)}15.88%,16.5%{transform:scale(0.556,1)}16.52%,17.45%{transform:scale(0.593,1)}17.47%,18.72%{transform:scale(0.630,1)}18.74%,21.26%{transform:scale(0.667,1)}21.28%,21.89%{transform:scale(0.704,1)}21.91%,22.21%{transform:scale(0.741,1)}22.23%,29.2%{transform:scale(0.778,1)}29.22%,29.83%{transform:scale(0.815,1)}29.85%,30.47%{transform:scale(0.852,1)}30.49%,33.32%{transform:scale(0.889,1)}33.34%,33.96%{transform:scale(0.926,1)}33.98%,34.59%{transform:scale(0.963,1)}34.61%,100%{transform:scale(1.000,1)}}.u.u0{fill:var(--c1);animation-name:u0;transform-origin:0.0px 0}@keyframes u1{34.91%{transform:scale(0.000,1)}34.93%,38.09%{transform:scale(0.091,1)}38.11%,44.43%{transform:scale(0.182,1)}44.45%,47.29%{transform:scale(0.273,1)}47.31%,51.74%{transform:scale(0.364,1)}51.76%,54.28%{transform:scale(0.455,1)}54.3%,54.59%{transform:scale(0.545,1)}54.61%,55.23%{transform:scale(0.636,1)}55.25%,55.55%{transform:scale(0.727,1)}55.57%,56.18%{transform:scale(0.818,1)}56.2%,58.72%{transform:scale(0.909,1)}58.74%,100%{transform:scale(1.000,1)}}.u.u1{fill:var(--c2);animation-name:u1;transform-origin:432.0px 0}@keyframes u2{59.67%{transform:scale(0.000,1)}59.69%,59.99%{transform:scale(0.125,1)}60.01%,60.62%{transform:scale(0.250,1)}60.64%,61.89%{transform:scale(0.375,1)}61.91%,64.12%{transform:scale(0.500,1)}64.14%,68.56%{transform:scale(0.625,1)}68.58%,70.78%{transform:scale(0.750,1)}70.8%,75.86%{transform:scale(0.875,1)}75.88%,100%{transform:scale(1.000,1)}}.u.u2{fill:var(--c3);animation-name:u2;transform-origin:608.0px 0}@keyframes u3{76.18%{transform:scale(0.000,1)}76.2%,76.5%{transform:scale(0.143,1)}76.52%,82.85%{transform:scale(0.286,1)}82.87%,94.91%{transform:scale(0.429,1)}94.93%,96.5%{transform:scale(0.571,1)}96.52%,96.82%{transform:scale(0.714,1)}96.84%,97.77%{transform:scale(0.857,1)}97.79%,100%{transform:scale(1.000,1)}}.u.u3{fill:var(--c4);animation-name:u3;transform-origin:736.0px 0}.s{shape-rendering:geometricPrecision;fill:var(--cs);animation:none linear 31500ms infinite}@keyframes s0{0%,99.68%{transform:translate(0px,-16px)}2.22%{transform:translate(0px,96px)}2.54%{transform:translate(-16px,96px)}2.86%{transform:translate(-16px,80px)}4.76%{transform:translate(80px,80px)}5.71%,60.32%{transform:translate(80px,32px)}6.98%{transform:translate(144px,32px)}7.3%{transform:translate(144px,16px)}7.62%{transform:translate(160px,16px)}8.25%,52.06%{transform:translate(160px,48px)}8.57%{transform:translate(144px,48px)}9.21%,10.48%{transform:translate(144px,80px)}9.52%{transform:translate(160px,80px)}9.84%{transform:translate(160px,96px)}10.16%,66.67%{transform:translate(144px,96px)}12.7%{transform:translate(256px,80px)}13.02%{transform:translate(256px,64px)}15.24%{transform:translate(368px,64px)}15.87%{transform:translate(368px,32px)}16.19%{transform:translate(384px,32px)}16.51%{transform:translate(384px,16px)}18.41%{transform:translate(480px,16px)}18.73%{transform:translate(480px,0px)}19.05%{transform:translate(496px,0px)}19.37%{transform:translate(496px,16px)}20%{transform:translate(464px,16px)}21.59%{transform:translate(464px,96px)}22.54%{transform:translate(416px,96px)}23.17%{transform:translate(416px,64px)}23.49%,76.83%{transform:translate(432px,64px)}23.81%{transform:translate(432px,48px)}29.52%{transform:translate(720px,48px)}29.84%{transform:translate(720px,32px)}30.48%{transform:translate(688px,32px)}30.79%{transform:translate(688px,48px)}33.02%{transform:translate(800px,48px)}33.33%{transform:translate(800px,64px)}33.97%{transform:translate(832px,64px)}34.92%{transform:translate(832px,16px)}37.14%{transform:translate(720px,16px)}38.1%,82.54%{transform:translate(720px,64px)}38.41%,83.49%{transform:translate(704px,64px)}39.68%{transform:translate(704px,0px)}46.03%{transform:translate(384px,0px)}47.3%{transform:translate(384px,64px)}51.75%{transform:translate(160px,64px)}53.65%{transform:translate(80px,48px)}53.97%{transform:translate(80px,64px)}54.92%{transform:translate(32px,64px)}55.87%{transform:translate(32px,16px)}56.19%,98.1%{transform:translate(48px,16px)}56.83%,98.73%{transform:translate(48px,-16px)}57.46%{transform:translate(16px,-16px)}58.73%{transform:translate(16px,48px)}59.05%{transform:translate(32px,48px)}59.37%{transform:translate(32px,32px)}60.95%{transform:translate(80px,0px)}62.22%{transform:translate(16px,0px)}64.13%{transform:translate(16px,96px)}68.57%{transform:translate(144px,0px)}70.48%{transform:translate(240px,0px)}70.79%{transform:translate(240px,16px)}74.92%{transform:translate(448px,16px)}76.19%{transform:translate(448px,80px)}76.51%{transform:translate(432px,80px)}82.86%{transform:translate(720px,80px)}83.17%{transform:translate(704px,80px)}94.92%{transform:translate(128px,64px)}95.24%{transform:translate(128px,48px)}96.83%{transform:translate(48px,48px)}97.14%{transform:translate(48px,32px)}97.46%{transform:translate(64px,32px)}97.78%{transform:translate(64px,16px)}}.s.s0{transform:translate(0px,-16px);animation-name:s0}@keyframes s1{0%,57.78%,99.68%{transform:translate(16px,-16px)}0.32%{transform:translate(0px,-16px)}2.54%{transform:translate(0px,96px)}2.86%{transform:translate(-16px,96px)}3.17%{transform:translate(-16px,80px)}5.08%{transform:translate(80px,80px)}6.03%,60.63%{transform:translate(80px,32px)}7.3%{transform:translate(144px,32px)}7.62%{transform:translate(144px,16px)}7.94%{transform:translate(160px,16px)}8.57%,52.38%{transform:translate(160px,48px)}8.89%{transform:translate(144px,48px)}9.52%,10.79%{transform:translate(144px,80px)}9.84%{transform:translate(160px,80px)}10.16%{transform:translate(160px,96px)}10.48%,66.98%{transform:translate(144px,96px)}13.02%{transform:translate(256px,80px)}13.33%{transform:translate(256px,64px)}15.56%{transform:translate(368px,64px)}16.19%{transform:translate(368px,32px)}16.51%{transform:translate(384px,32px)}16.83%{transform:translate(384px,16px)}18.73%{transform:translate(480px,16px)}19.05%{transform:translate(480px,0px)}19.37%{transform:translate(496px,0px)}19.68%{transform:translate(496px,16px)}20.32%{transform:translate(464px,16px)}21.9%{transform:translate(464px,96px)}22.86%{transform:translate(416px,96px)}23.49%{transform:translate(416px,64px)}23.81%,77.14%{transform:translate(432px,64px)}24.13%{transform:translate(432px,48px)}29.84%{transform:translate(720px,48px)}30.16%{transform:translate(720px,32px)}30.79%{transform:translate(688px,32px)}31.11%{transform:translate(688px,48px)}33.33%{transform:translate(800px,48px)}33.65%{transform:translate(800px,64px)}34.29%{transform:translate(832px,64px)}35.24%{transform:translate(832px,16px)}37.46%{transform:translate(720px,16px)}38.41%,82.86%{transform:translate(720px,64px)}38.73%,83.81%{transform:translate(704px,64px)}40%{transform:translate(704px,0px)}46.35%{transform:translate(384px,0px)}47.62%{transform:translate(384px,64px)}52.06%{transform:translate(160px,64px)}53.97%{transform:translate(80px,48px)}54.29%{transform:translate(80px,64px)}55.24%{transform:translate(32px,64px)}56.19%{transform:translate(32px,16px)}56.51%,98.41%{transform:translate(48px,16px)}57.14%,99.05%{transform:translate(48px,-16px)}59.05%{transform:translate(16px,48px)}59.37%{transform:translate(32px,48px)}59.68%{transform:translate(32px,32px)}61.27%{transform:translate(80px,0px)}62.54%{transform:translate(16px,0px)}64.44%{transform:translate(16px,96px)}68.89%{transform:translate(144px,0px)}70.79%{transform:translate(240px,0px)}71.11%{transform:translate(240px,16px)}75.24%{transform:translate(448px,16px)}76.51%{transform:translate(448px,80px)}76.83%{transform:translate(432px,80px)}83.17%{transform:translate(720px,80px)}83.49%{transform:translate(704px,80px)}95.24%{transform:translate(128px,64px)}95.56%{transform:translate(128px,48px)}97.14%{transform:translate(48px,48px)}97.46%{transform:translate(48px,32px)}97.78%{transform:translate(64px,32px)}98.1%{transform:translate(64px,16px)}}.s.s1{transform:translate(16px,-16px);animation-name:s1}@keyframes s2{0%,99.68%{transform:translate(32px,-16px)}0.63%{transform:translate(0px,-16px)}2.86%{transform:translate(0px,96px)}3.17%{transform:translate(-16px,96px)}3.49%{transform:translate(-16px,80px)}5.4%{transform:translate(80px,80px)}6.35%,60.95%{transform:translate(80px,32px)}7.62%{transform:translate(144px,32px)}7.94%{transform:translate(144px,16px)}8.25%{transform:translate(160px,16px)}8.89%,52.7%{transform:translate(160px,48px)}9.21%{transform:translate(144px,48px)}9.84%,11.11%{transform:translate(144px,80px)}10.16%{transform:translate(160px,80px)}10.48%{transform:translate(160px,96px)}10.79%,67.3%{transform:translate(144px,96px)}13.33%{transform:translate(256px,80px)}13.65%{transform:translate(256px,64px)}15.87%{transform:translate(368px,64px)}16.51%{transform:translate(368px,32px)}16.83%{transform:translate(384px,32px)}17.14%{transform:translate(384px,16px)}19.05%{transform:translate(480px,16px)}19.37%{transform:translate(480px,0px)}19.68%{transform:translate(496px,0px)}20%{transform:translate(496px,16px)}20.63%{transform:translate(464px,16px)}22.22%{transform:translate(464px,96px)}23.17%{transform:translate(416px,96px)}23.81%{transform:translate(416px,64px)}24.13%,77.46%{transform:translate(432px,64px)}24.44%{transform:translate(432px,48px)}30.16%{transform:translate(720px,48px)}30.48%{transform:translate(720px,32px)}31.11%{transform:translate(688px,32px)}31.43%{transform:translate(688px,48px)}33.65%{transform:translate(800px,48px)}33.97%{transform:translate(800px,64px)}34.6%{transform:translate(832px,64px)}35.56%{transform:translate(832px,16px)}37.78%{transform:translate(720px,16px)}38.73%,83.17%{transform:translate(720px,64px)}39.05%,84.13%{transform:translate(704px,64px)}40.32%{transform:translate(704px,0px)}46.67%{transform:translate(384px,0px)}47.94%{transform:translate(384px,64px)}52.38%{transform:translate(160px,64px)}54.29%{transform:translate(80px,48px)}54.6%{transform:translate(80px,64px)}55.56%{transform:translate(32px,64px)}56.51%{transform:translate(32px,16px)}56.83%,98.73%{transform:translate(48px,16px)}57.46%,99.37%{transform:translate(48px,-16px)}58.1%{transform:translate(16px,-16px)}59.37%{transform:translate(16px,48px)}59.68%{transform:translate(32px,48px)}60%{transform:translate(32px,32px)}61.59%{transform:translate(80px,0px)}62.86%{transform:translate(16px,0px)}64.76%{transform:translate(16px,96px)}69.21%{transform:translate(144px,0px)}71.11%{transform:translate(240px,0px)}71.43%{transform:translate(240px,16px)}75.56%{transform:translate(448px,16px)}76.83%{transform:translate(448px,80px)}77.14%{transform:translate(432px,80px)}83.49%{transform:translate(720px,80px)}83.81%{transform:translate(704px,80px)}95.56%{transform:translate(128px,64px)}95.87%{transform:translate(128px,48px)}97.46%{transform:translate(48px,48px)}97.78%{transform:translate(48px,32px)}98.1%{transform:translate(64px,32px)}98.41%{transform:translate(64px,16px)}}.s.s2{transform:translate(32px,-16px);animation-name:s2}@keyframes s3{0%,57.78%,99.68%{transform:translate(48px,-16px)}0.95%{transform:translate(0px,-16px)}3.17%{transform:translate(0px,96px)}3.49%{transform:translate(-16px,96px)}3.81%{transform:translate(-16px,80px)}5.71%{transform:translate(80px,80px)}6.67%,61.27%{transform:translate(80px,32px)}7.94%{transform:translate(144px,32px)}8.25%{transform:translate(144px,16px)}8.57%{transform:translate(160px,16px)}9.21%,53.02%{transform:translate(160px,48px)}9.52%{transform:translate(144px,48px)}10.16%,11.43%{transform:translate(144px,80px)}10.48%{transform:translate(160px,80px)}10.79%{transform:translate(160px,96px)}11.11%,67.62%{transform:translate(144px,96px)}13.65%{transform:translate(256px,80px)}13.97%{transform:translate(256px,64px)}16.19%{transform:translate(368px,64px)}16.83%{transform:translate(368px,32px)}17.14%{transform:translate(384px,32px)}17.46%{transform:translate(384px,16px)}19.37%{transform:translate(480px,16px)}19.68%{transform:translate(480px,0px)}20%{transform:translate(496px,0px)}20.32%{transform:translate(496px,16px)}20.95%{transform:translate(464px,16px)}22.54%{transform:translate(464px,96px)}23.49%{transform:translate(416px,96px)}24.13%{transform:translate(416px,64px)}24.44%,77.78%{transform:translate(432px,64px)}24.76%{transform:translate(432px,48px)}30.48%{transform:translate(720px,48px)}30.79%{transform:translate(720px,32px)}31.43%{transform:translate(688px,32px)}31.75%{transform:translate(688px,48px)}33.97%{transform:translate(800px,48px)}34.29%{transform:translate(800px,64px)}34.92%{transform:translate(832px,64px)}35.87%{transform:translate(832px,16px)}38.1%{transform:translate(720px,16px)}39.05%,83.49%{transform:translate(720px,64px)}39.37%,84.44%{transform:translate(704px,64px)}40.63%{transform:translate(704px,0px)}46.98%{transform:translate(384px,0px)}48.25%{transform:translate(384px,64px)}52.7%{transform:translate(160px,64px)}54.6%{transform:translate(80px,48px)}54.92%{transform:translate(80px,64px)}55.87%{transform:translate(32px,64px)}56.83%{transform:translate(32px,16px)}57.14%,99.05%{transform:translate(48px,16px)}58.41%{transform:translate(16px,-16px)}59.68%{transform:translate(16px,48px)}60%{transform:translate(32px,48px)}60.32%{transform:translate(32px,32px)}61.9%{transform:translate(80px,0px)}63.17%{transform:translate(16px,0px)}65.08%{transform:translate(16px,96px)}69.52%{transform:translate(144px,0px)}71.43%{transform:translate(240px,0px)}71.75%{transform:translate(240px,16px)}75.87%{transform:translate(448px,16px)}77.14%{transform:translate(448px,80px)}77.46%{transform:translate(432px,80px)}83.81%{transform:translate(720px,80px)}84.13%{transform:translate(704px,80px)}95.87%{transform:translate(128px,64px)}96.19%{transform:translate(128px,48px)}97.78%{transform:translate(48px,48px)}98.1%{transform:translate(48px,32px)}98.41%{transform:translate(64px,32px)}98.73%{transform:translate(64px,16px)}}.s.s3{transform:translate(48px,-16px);animation-name:s3}</style><rect class="c" x="2" y="2" rx="2" ry="2"/><rect class="c" x="2" y="18" rx="2" ry="2"/><rect class="c" x="2" y="34" rx="2" ry="2"/><rect class="c" x="2" y="50" rx="2" ry="2"/><rect class="c" x="2" y="66" rx="2" ry="2"/><rect class="c" x="2" y="82" rx="2" ry="2"/><rect class="c c0" x="2" y="98" rx="2" ry="2"/><rect class="c" x="18" y="2" rx="2" ry="2"/><rect class="c" x="18" y="18" rx="2" ry="2"/><rect class="c" x="18" y="34" rx="2" ry="2"/><rect class="c c1" x="18" y="50" rx="2" ry="2"/><rect class="c" x="18" y="66" rx="2" ry="2"/><rect class="c" x="18" y="82" rx="2" ry="2"/><rect class="c c2" x="18" y="98" rx="2" ry="2"/><rect class="c c3" x="34" y="2" rx="2" ry="2"/><rect class="c" x="34" y="18" rx="2" ry="2"/><rect class="c c4" x="34" y="34" rx="2" ry="2"/><rect class="c c5" x="34" y="50" rx="2" ry="2"/><rect class="c" x="34" y="66" rx="2" ry="2"/><rect class="c c6" x="34" y="82" rx="2" ry="2"/><rect class="c" x="34" y="98" rx="2" ry="2"/><rect class="c" x="50" y="2" rx="2" ry="2"/><rect class="c c7" x="50" y="18" rx="2" ry="2"/><rect class="c c8" x="50" y="34" rx="2" ry="2"/><rect class="c c9" x="50" y="50" rx="2" ry="2"/><rect class="c ca" x="50" y="66" rx="2" ry="2"/><rect class="c cb" x="50" y="82" rx="2" ry="2"/><rect class="c" x="50" y="98" rx="2" ry="2"/><rect class="c" x="66" y="2" rx="2" ry="2"/><rect class="c cc" x="66" y="18" rx="2" ry="2"/><rect class="c cd" x="66" y="34" rx="2" ry="2"/><rect class="c ce" x="66" y="50" rx="2" ry="2"/><rect class="c cf" x="66" y="66" rx="2" ry="2"/><rect class="c cg" x="66" y="82" rx="2" ry="2"/><rect class="c" x="66" y="98" rx="2" ry="2"/><rect class="c" x="82" y="2" rx="2" ry="2"/><rect class="c ch" x="82" y="18" rx="2" ry="2"/><rect class="c ci" x="82" y="34" rx="2" ry="2"/><rect class="c cj" x="82" y="50" rx="2" ry="2"/><rect class="c" x="82" y="66" rx="2" ry="2"/><rect class="c" x="82" y="82" rx="2" ry="2"/><rect class="c" x="82" y="98" rx="2" ry="2"/><rect class="c" x="98" y="2" rx="2" ry="2"/><rect class="c" x="98" y="18" rx="2" ry="2"/><rect class="c" x="98" y="34" rx="2" ry="2"/><rect class="c" x="98" y="50" rx="2" ry="2"/><rect class="c" x="98" y="66" rx="2" ry="2"/><rect class="c" x="98" y="82" rx="2" ry="2"/><rect class="c" x="98" y="98" rx="2" ry="2"/><rect class="c" x="114" y="2" rx="2" ry="2"/><rect class="c" x="114" y="18" rx="2" ry="2"/><rect class="c" x="114" y="34" rx="2" ry="2"/><rect class="c" x="114" y="50" rx="2" ry="2"/><rect class="c" x="114" y="66" rx="2" ry="2"/><rect class="c" x="114" y="82" rx="2" ry="2"/><rect class="c" x="114" y="98" rx="2" ry="2"/><rect class="c" x="130" y="2" rx="2" ry="2"/><rect class="c" x="130" y="18" rx="2" ry="2"/><rect class="c" x="130" y="34" rx="2" ry="2"/><rect class="c" x="130" y="50" rx="2" ry="2"/><rect class="c ck" x="130" y="66" rx="2" ry="2"/><rect class="c" x="130" y="82" rx="2" ry="2"/><rect class="c" x="130" y="98" rx="2" ry="2"/><rect class="c cl" x="146" y="2" rx="2" ry="2"/><rect class="c cm" x="146" y="18" rx="2" ry="2"/><rect class="c" x="146" y="34" rx="2" ry="2"/><rect class="c" x="146" y="50" rx="2" ry="2"/><rect class="c cn" x="146" y="66" rx="2" ry="2"/><rect class="c" x="146" y="82" rx="2" ry="2"/><rect class="c co" x="146" y="98" rx="2" ry="2"/><rect class="c" x="162" y="2" rx="2" ry="2"/><rect class="c cp" x="162" y="18" rx="2" ry="2"/><rect class="c" x="162" y="34" rx="2" ry="2"/><rect class="c cq" x="162" y="50" rx="2" ry="2"/><rect class="c cr" x="162" y="66" rx="2" ry="2"/><rect class="c cs" x="162" y="82" rx="2" ry="2"/><rect class="c" x="162" y="98" rx="2" ry="2"/><rect class="c" x="178" y="2" rx="2" ry="2"/><rect class="c" x="178" y="18" rx="2" ry="2"/><rect class="c" x="178" y="34" rx="2" ry="2"/><rect class="c" x="178" y="50" rx="2" ry="2"/><rect class="c" x="178" y="66" rx="2" ry="2"/><rect class="c" x="178" y="82" rx="2" ry="2"/><rect class="c" x="178" y="98" rx="2" ry="2"/><rect class="c" x="194" y="2" rx="2" ry="2"/><rect class="c" x="194" y="18" rx="2" ry="2"/><rect class="c" x="194" y="34" rx="2" ry="2"/><rect class="c" x="194" y="50" rx="2" ry="2"/><rect class="c" x="194" y="66" rx="2" ry="2"/><rect class="c" x="194" y="82" rx="2" ry="2"/><rect class="c" x="194" y="98" rx="2" ry="2"/><rect class="c" x="210" y="2" rx="2" ry="2"/><rect class="c" x="210" y="18" rx="2" ry="2"/><rect class="c" x="210" y="34" rx="2" ry="2"/><rect class="c" x="210" y="50" rx="2" ry="2"/><rect class="c" x="210" y="66" rx="2" ry="2"/><rect class="c" x="210" y="82" rx="2" ry="2"/><rect class="c" x="210" y="98" rx="2" ry="2"/><rect class="c" x="226" y="2" rx="2" ry="2"/><rect class="c" x="226" y="18" rx="2" ry="2"/><rect class="c" x="226" y="34" rx="2" ry="2"/><rect class="c" x="226" y="50" rx="2" ry="2"/><rect class="c" x="226" y="66" rx="2" ry="2"/><rect class="c" x="226" y="82" rx="2" ry="2"/><rect class="c" x="226" y="98" rx="2" ry="2"/><rect class="c" x="242" y="2" rx="2" ry="2"/><rect class="c ct" x="242" y="18" rx="2" ry="2"/><rect class="c" x="242" y="34" rx="2" ry="2"/><rect class="c" x="242" y="50" rx="2" ry="2"/><rect class="c" x="242" y="66" rx="2" ry="2"/><rect class="c" x="242" y="82" rx="2" ry="2"/><rect class="c" x="242" y="98" rx="2" ry="2"/><rect class="c" x="258" y="2" rx="2" ry="2"/><rect class="c" x="258" y="18" rx="2" ry="2"/><rect class="c" x="258" y="34" rx="2" ry="2"/><rect class="c" x="258" y="50" rx="2" ry="2"/><rect class="c cu" x="258" y="66" rx="2" ry="2"/><rect class="c" x="258" y="82" rx="2" ry="2"/><rect class="c" x="258" y="98" rx="2" ry="2"/><rect class="c" x="274" y="2" rx="2" ry="2"/><rect class="c" x="274" y="18" rx="2" ry="2"/><rect class="c" x="274" y="34" rx="2" ry="2"/><rect class="c" x="274" y="50" rx="2" ry="2"/><rect class="c" x="274" y="66" rx="2" ry="2"/><rect class="c" x="274" y="82" rx="2" ry="2"/><rect class="c" x="274" y="98" rx="2" ry="2"/><rect class="c" x="290" y="2" rx="2" ry="2"/><rect class="c" x="290" y="18" rx="2" ry="2"/><rect class="c" x="290" y="34" rx="2" ry="2"/><rect class="c" x="290" y="50" rx="2" ry="2"/><rect class="c" x="290" y="66" rx="2" ry="2"/><rect class="c" x="290" y="82" rx="2" ry="2"/><rect class="c" x="290" y="98" rx="2" ry="2"/><rect class="c" x="306" y="2" rx="2" ry="2"/><rect class="c" x="306" y="18" rx="2" ry="2"/><rect class="c" x="306" y="34" rx="2" ry="2"/><rect class="c" x="306" y="50" rx="2" ry="2"/><rect class="c" x="306" y="66" rx="2" ry="2"/><rect class="c" x="306" y="82" rx="2" ry="2"/><rect class="c" x="306" y="98" rx="2" ry="2"/><rect class="c" x="322" y="2" rx="2" ry="2"/><rect class="c" x="322" y="18" rx="2" ry="2"/><rect class="c" x="322" y="34" rx="2" ry="2"/><rect class="c" x="322" y="50" rx="2" ry="2"/><rect class="c" x="322" y="66" rx="2" ry="2"/><rect class="c" x="322" y="82" rx="2" ry="2"/><rect class="c" x="322" y="98" rx="2" ry="2"/><rect class="c" x="338" y="2" rx="2" ry="2"/><rect class="c" x="338" y="18" rx="2" ry="2"/><rect class="c" x="338" y="34" rx="2" ry="2"/><rect class="c" x="338" y="50" rx="2" ry="2"/><rect class="c" x="338" y="66" rx="2" ry="2"/><rect class="c" x="338" y="82" rx="2" ry="2"/><rect class="c" x="338" y="98" rx="2" ry="2"/><rect class="c" x="354" y="2" rx="2" ry="2"/><rect class="c" x="354" y="18" rx="2" ry="2"/><rect class="c" x="354" y="34" rx="2" ry="2"/><rect class="c" x="354" y="50" rx="2" ry="2"/><rect class="c cv" x="354" y="66" rx="2" ry="2"/><rect class="c" x="354" y="82" rx="2" ry="2"/><rect class="c" x="354" y="98" rx="2" ry="2"/><rect class="c" x="370" y="2" rx="2" ry="2"/><rect class="c" x="370" y="18" rx="2" ry="2"/><rect class="c cw" x="370" y="34" rx="2" ry="2"/><rect class="c" x="370" y="50" rx="2" ry="2"/><rect class="c" x="370" y="66" rx="2" ry="2"/><rect class="c" x="370" y="82" rx="2" ry="2"/><rect class="c" x="370" y="98" rx="2" ry="2"/><rect class="c" x="386" y="2" rx="2" ry="2"/><rect class="c cx" x="386" y="18" rx="2" ry="2"/><rect class="c" x="386" y="34" rx="2" ry="2"/><rect class="c" x="386" y="50" rx="2" ry="2"/><rect class="c cy" x="386" y="66" rx="2" ry="2"/><rect class="c" x="386" y="82" rx="2" ry="2"/><rect class="c" x="386" y="98" rx="2" ry="2"/><rect class="c" x="402" y="2" rx="2" ry="2"/><rect class="c" x="402" y="18" rx="2" ry="2"/><rect class="c" x="402" y="34" rx="2" ry="2"/><rect class="c" x="402" y="50" rx="2" ry="2"/><rect class="c" x="402" y="66" rx="2" ry="2"/><rect class="c" x="402" y="82" rx="2" ry="2"/><rect class="c" x="402" y="98" rx="2" ry="2"/><rect class="c" x="418" y="2" rx="2" ry="2"/><rect class="c" x="418" y="18" rx="2" ry="2"/><rect class="c" x="418" y="34" rx="2" ry="2"/><rect class="c" x="418" y="50" rx="2" ry="2"/><rect class="c" x="418" y="66" rx="2" ry="2"/><rect class="c" x="418" y="82" rx="2" ry="2"/><rect class="c" x="418" y="98" rx="2" ry="2"/><rect class="c" x="434" y="2" rx="2" ry="2"/><rect class="c cz" x="434" y="18" rx="2" ry="2"/><rect class="c" x="434" y="34" rx="2" ry="2"/><rect class="c" x="434" y="50" rx="2" ry="2"/><rect class="c" x="434" y="66" rx="2" ry="2"/><rect class="c c10" x="434" y="82" rx="2" ry="2"/><rect class="c c11" x="434" y="98" rx="2" ry="2"/><rect class="c" x="450" y="2" rx="2" ry="2"/><rect class="c" x="450" y="18" rx="2" ry="2"/><rect class="c" x="450" y="34" rx="2" ry="2"/><rect class="c" x="450" y="50" rx="2" ry="2"/><rect class="c c12" x="450" y="66" rx="2" ry="2"/><rect class="c c13" x="450" y="82" rx="2" ry="2"/><rect class="c c14" x="450" y="98" rx="2" ry="2"/><rect class="c c15" x="466" y="2" rx="2" ry="2"/><rect class="c" x="466" y="18" rx="2" ry="2"/><rect class="c" x="466" y="34" rx="2" ry="2"/><rect class="c" x="466" y="50" rx="2" ry="2"/><rect class="c" x="466" y="66" rx="2" ry="2"/><rect class="c c16" x="466" y="82" rx="2" ry="2"/><rect class="c" x="466" y="98" rx="2" ry="2"/><rect class="c c17" x="482" y="2" rx="2" ry="2"/><rect class="c" x="482" y="18" rx="2" ry="2"/><rect class="c" x="482" y="34" rx="2" ry="2"/><rect class="c" x="482" y="50" rx="2" ry="2"/><rect class="c" x="482" y="66" rx="2" ry="2"/><rect class="c" x="482" y="82" rx="2" ry="2"/><rect class="c" x="482" y="98" rx="2" ry="2"/><rect class="c" x="498" y="2" rx="2" ry="2"/><rect class="c" x="498" y="18" rx="2" ry="2"/><rect class="c" x="498" y="34" rx="2" ry="2"/><rect class="c" x="498" y="50" rx="2" ry="2"/><rect class="c" x="498" y="66" rx="2" ry="2"/><rect class="c" x="498" y="82" rx="2" ry="2"/><rect class="c" x="498" y="98" rx="2" ry="2"/><rect class="c" x="514" y="2" rx="2" ry="2"/><rect class="c" x="514" y="18" rx="2" ry="2"/><rect class="c" x="514" y="34" rx="2" ry="2"/><rect class="c" x="514" y="50" rx="2" ry="2"/><rect class="c" x="514" y="66" rx="2" ry="2"/><rect class="c" x="514" y="82" rx="2" ry="2"/><rect class="c" x="514" y="98" rx="2" ry="2"/><rect class="c" x="530" y="2" rx="2" ry="2"/><rect class="c" x="530" y="18" rx="2" ry="2"/><rect class="c" x="530" y="34" rx="2" ry="2"/><rect class="c" x="530" y="50" rx="2" ry="2"/><rect class="c" x="530" y="66" rx="2" ry="2"/><rect class="c" x="530" y="82" rx="2" ry="2"/><rect class="c" x="530" y="98" rx="2" ry="2"/><rect class="c" x="546" y="2" rx="2" ry="2"/><rect class="c" x="546" y="18" rx="2" ry="2"/><rect class="c" x="546" y="34" rx="2" ry="2"/><rect class="c" x="546" y="50" rx="2" ry="2"/><rect class="c" x="546" y="66" rx="2" ry="2"/><rect class="c" x="546" y="82" rx="2" ry="2"/><rect class="c" x="546" y="98" rx="2" ry="2"/><rect class="c" x="562" y="2" rx="2" ry="2"/><rect class="c" x="562" y="18" rx="2" ry="2"/><rect class="c" x="562" y="34" rx="2" ry="2"/><rect class="c" x="562" y="50" rx="2" ry="2"/><rect class="c" x="562" y="66" rx="2" ry="2"/><rect class="c" x="562" y="82" rx="2" ry="2"/><rect class="c" x="562" y="98" rx="2" ry="2"/><rect class="c" x="578" y="2" rx="2" ry="2"/><rect class="c" x="578" y="18" rx="2" ry="2"/><rect class="c" x="578" y="34" rx="2" ry="2"/><rect class="c" x="578" y="50" rx="2" ry="2"/><rect class="c" x="578" y="66" rx="2" ry="2"/><rect class="c" x="578" y="82" rx="2" ry="2"/><rect class="c" x="578" y="98" rx="2" ry="2"/><rect class="c" x="594" y="2" rx="2" ry="2"/><rect class="c" x="594" y="18" rx="2" ry="2"/><rect class="c" x="594" y="34" rx="2" ry="2"/><rect class="c" x="594" y="50" rx="2" ry="2"/><rect class="c" x="594" y="66" rx="2" ry="2"/><rect class="c" x="594" y="82" rx="2" ry="2"/><rect class="c" x="594" y="98" rx="2" ry="2"/><rect class="c" x="610" y="2" rx="2" ry="2"/><rect class="c" x="610" y="18" rx="2" ry="2"/><rect class="c" x="610" y="34" rx="2" ry="2"/><rect class="c" x="610" y="50" rx="2" ry="2"/><rect class="c" x="610" y="66" rx="2" ry="2"/><rect class="c" x="610" y="82" rx="2" ry="2"/><rect class="c" x="610" y="98" rx="2" ry="2"/><rect class="c" x="626" y="2" rx="2" ry="2"/><rect class="c" x="626" y="18" rx="2" ry="2"/><rect class="c" x="626" y="34" rx="2" ry="2"/><rect class="c" x="626" y="50" rx="2" ry="2"/><rect class="c" x="626" y="66" rx="2" ry="2"/><rect class="c" x="626" y="82" rx="2" ry="2"/><rect class="c" x="626" y="98" rx="2" ry="2"/><rect class="c" x="642" y="2" rx="2" ry="2"/><rect class="c" x="642" y="18" rx="2" ry="2"/><rect class="c" x="642" y="34" rx="2" ry="2"/><rect class="c" x="642" y="50" rx="2" ry="2"/><rect class="c" x="642" y="66" rx="2" ry="2"/><rect class="c" x="642" y="82" rx="2" ry="2"/><rect class="c" x="642" y="98" rx="2" ry="2"/><rect class="c" x="658" y="2" rx="2" ry="2"/><rect class="c" x="658" y="18" rx="2" ry="2"/><rect class="c" x="658" y="34" rx="2" ry="2"/><rect class="c" x="658" y="50" rx="2" ry="2"/><rect class="c" x="658" y="66" rx="2" ry="2"/><rect class="c" x="658" y="82" rx="2" ry="2"/><rect class="c" x="658" y="98" rx="2" ry="2"/><rect class="c" x="674" y="2" rx="2" ry="2"/><rect class="c" x="674" y="18" rx="2" ry="2"/><rect class="c" x="674" y="34" rx="2" ry="2"/><rect class="c" x="674" y="50" rx="2" ry="2"/><rect class="c" x="674" y="66" rx="2" ry="2"/><rect class="c" x="674" y="82" rx="2" ry="2"/><rect class="c" x="674" y="98" rx="2" ry="2"/><rect class="c" x="690" y="2" rx="2" ry="2"/><rect class="c" x="690" y="18" rx="2" ry="2"/><rect class="c c18" x="690" y="34" rx="2" ry="2"/><rect class="c" x="690" y="50" rx="2" ry="2"/><rect class="c" x="690" y="66" rx="2" ry="2"/><rect class="c" x="690" y="82" rx="2" ry="2"/><rect class="c" x="690" y="98" rx="2" ry="2"/><rect class="c" x="706" y="2" rx="2" ry="2"/><rect class="c" x="706" y="18" rx="2" ry="2"/><rect class="c" x="706" y="34" rx="2" ry="2"/><rect class="c c19" x="706" y="50" rx="2" ry="2"/><rect class="c" x="706" y="66" rx="2" ry="2"/><rect class="c" x="706" y="82" rx="2" ry="2"/><rect class="c" x="706" y="98" rx="2" ry="2"/><rect class="c" x="722" y="2" rx="2" ry="2"/><rect class="c" x="722" y="18" rx="2" ry="2"/><rect class="c c1a" x="722" y="34" rx="2" ry="2"/><rect class="c" x="722" y="50" rx="2" ry="2"/><rect class="c c1b" x="722" y="66" rx="2" ry="2"/><rect class="c c1c" x="722" y="82" rx="2" ry="2"/><rect class="c" x="722" y="98" rx="2" ry="2"/><rect class="c" x="738" y="2" rx="2" ry="2"/><rect class="c" x="738" y="18" rx="2" ry="2"/><rect class="c" x="738" y="34" rx="2" ry="2"/><rect class="c" x="738" y="50" rx="2" ry="2"/><rect class="c" x="738" y="66" rx="2" ry="2"/><rect class="c" x="738" y="82" rx="2" ry="2"/><rect class="c" x="738" y="98" rx="2" ry="2"/><rect class="c" x="754" y="2" rx="2" ry="2"/><rect class="c" x="754" y="18" rx="2" ry="2"/><rect class="c" x="754" y="34" rx="2" ry="2"/><rect class="c" x="754" y="50" rx="2" ry="2"/><rect class="c" x="754" y="66" rx="2" ry="2"/><rect class="c" x="754" y="82" rx="2" ry="2"/><rect class="c" x="754" y="98" rx="2" ry="2"/><rect class="c" x="770" y="2" rx="2" ry="2"/><rect class="c" x="770" y="18" rx="2" ry="2"/><rect class="c" x="770" y="34" rx="2" ry="2"/><rect class="c" x="770" y="50" rx="2" ry="2"/><rect class="c" x="770" y="66" rx="2" ry="2"/><rect class="c" x="770" y="82" rx="2" ry="2"/><rect class="c" x="770" y="98" rx="2" ry="2"/><rect class="c" x="786" y="2" rx="2" ry="2"/><rect class="c" x="786" y="18" rx="2" ry="2"/><rect class="c" x="786" y="34" rx="2" ry="2"/><rect class="c" x="786" y="50" rx="2" ry="2"/><rect class="c" x="786" y="66" rx="2" ry="2"/><rect class="c" x="786" y="82" rx="2" ry="2"/><rect class="c" x="786" y="98" rx="2" ry="2"/><rect class="c" x="802" y="2" rx="2" ry="2"/><rect class="c" x="802" y="18" rx="2" ry="2"/><rect class="c" x="802" y="34" rx="2" ry="2"/><rect class="c" x="802" y="50" rx="2" ry="2"/><rect class="c c1d" x="802" y="66" rx="2" ry="2"/><rect class="c" x="802" y="82" rx="2" ry="2"/><rect class="c" x="802" y="98" rx="2" ry="2"/><rect class="c" x="818" y="2" rx="2" ry="2"/><rect class="c" x="818" y="18" rx="2" ry="2"/><rect class="c" x="818" y="34" rx="2" ry="2"/><rect class="c" x="818" y="50" rx="2" ry="2"/><rect class="c" x="818" y="66" rx="2" ry="2"/><rect class="c" x="818" y="82" rx="2" ry="2"/><rect class="c" x="818" y="98" rx="2" ry="2"/><rect class="c" x="834" y="2" rx="2" ry="2"/><rect class="c c1e" x="834" y="18" rx="2" ry="2"/><rect class="c c1f" x="834" y="34" rx="2" ry="2"/><rect class="c" x="834" y="50" rx="2" ry="2"/><rect class="c c1g" x="834" y="66" rx="2" ry="2"/><rect class="c" x="834" y="82" rx="2" ry="2"/><rect class="c" x="834" y="98" rx="2" ry="2"/><rect class="u u0" height="12" width="432.6" x="0.0" y="144"/><rect class="u u1" height="12" width="176.6" x="432.0" y="144"/><rect class="u u2" height="12" width="128.6" x="608.0" y="144"/><rect class="u u3" height="12" width="112.6" x="736.0" y="144"/><rect class="s s0" x="0.8" y="0.8" width="14.4" height="14.4" rx="4.5" ry="4.5"/><rect class="s s1" x="1.8" y="1.8" width="12.3" height="12.3" rx="4.1" ry="4.1"/><rect class="s s2" x="2.6" y="2.6" width="10.8" height="10.8" rx="3.6" ry="3.6"/><rect class="s s3" x="3.0" y="3.0" width="9.9" height="9.9" rx="3.3" ry="3.3"/></svg>