<svg viewBox="-16 -32 880 192" width="880" height="192" xmlns="http://www.w3.org/2000/svg"><desc>Generated with https://github.com/Platane/snk</desc><style>:root{--cb:#1b1f230a;--cs:orange;--ce:#bfd6f6;--c0:#bfd6f6;--c1:#8dbdff;--c2:#64a1f4;--c3:#4b91f1;--c4:#3c7dd9}.c{shape-rendering:geometricPrecision;fill:var(--ce);stroke-width:1px;stroke:var(--cb);animation:none 37700ms linear infinite;width:12px;height:12px}@keyframes c0{24.13%{fill:var(--c1)}24.15%,100%{fill:var(--ce)}}.c.c0{fill:var(--c1);animation-name:c0}@keyframes c1{74.26%{fill:var(--c2)}74.28%,100%{fill:var(--ce)}}.c.c1{fill:var(--c2);animation-name:c1}@keyframes c2{1.85%{fill:var(--c1)}1.87%,100%{fill:var(--ce)}}.c.c2{fill:var(--c1);animation-name:c2}@keyframes c3{2.38%{fill:var(--c1)}2.4%,100%{fill:var(--ce)}}.c.c3{fill:var(--c1);animation-name:c3}@keyframes c4{71.87%{fill:var(--c2)}71.89%,100%{fill:var(--ce)}}.c.c4{fill:var(--c2);animation-name:c4}@keyframes c5{2.91%{fill:var(--c1)}2.93%,100%{fill:var(--ce)}}.c.c5{fill:var(--c1);animation-name:c5}@keyframes c6{4.5%{fill:var(--c1)}4.52%,100%{fill:var(--ce)}}.c.c6{fill:var(--c1);animation-name:c6}@keyframes c7{4.76%{fill:var(--c1)}4.78%,100%{fill:var(--ce)}}.c.c7{fill:var(--c1);animation-name:c7}@keyframes c8{5.3%{fill:var(--c1)}5.32%,100%{fill:var(--ce)}}.c.c8{fill:var(--c1);animation-name:c8}@keyframes c9{70.81%{fill:var(--c2)}70.83%,100%{fill:var(--ce)}}.c.c9{fill:var(--c2);animation-name:c9}@keyframes ca{4.23%{fill:var(--c1)}4.25%,100%{fill:var(--ce)}}.c.ca{fill:var(--c1);animation-name:ca}@keyframes cb{3.7%{fill:var(--c1)}3.72%,100%{fill:var(--ce)}}.c.cb{fill:var(--c1);animation-name:cb}@keyframes cc{8.74%{fill:var(--c1)}8.76%,100%{fill:var(--ce)}}.c.cc{fill:var(--c1);animation-name:cc}@keyframes cd{70.02%{fill:var(--c2)}70.04%,100%{fill:var(--ce)}}.c.cd{fill:var(--c2);animation-name:cd}@keyframes ce{7.95%{fill:var(--c1)}7.97%,100%{fill:var(--ce)}}.c.ce{fill:var(--c1);animation-name:ce}@keyframes cf{7.42%{fill:var(--c1)}7.44%,100%{fill:var(--ce)}}.c.cf{fill:var(--c1);animation-name:cf}@keyframes cg{7.15%{fill:var(--c1)}7.17%,100%{fill:var(--ce)}}.c.cg{fill:var(--c1);animation-name:cg}@keyframes ch{6.89%{fill:var(--c1)}6.91%,100%{fill:var(--ce)}}.c.ch{fill:var(--c1);animation-name:ch}@keyframes ci{6.62%{fill:var(--c1)}6.64%,100%{fill:var(--ce)}}.c.ci{fill:var(--c1);animation-name:ci}@keyframes cj{20.41%{fill:var(--c1)}20.43%,100%{fill:var(--ce)}}.c.cj{fill:var(--c1);animation-name:cj}@keyframes ck{68.43%{fill:var(--c2)}68.45%,100%{fill:var(--ce)}}.c.ck{fill:var(--c2);animation-name:ck}@keyframes cl{10.33%{fill:var(--c1)}10.35%,100%{fill:var(--ce)}}.c.cl{fill:var(--c1);animation-name:cl}@keyframes cm{10.6%{fill:var(--c1)}10.62%,100%{fill:var(--ce)}}.c.cm{fill:var(--c1);animation-name:cm}@keyframes cn{11.13%{fill:var(--c1)}11.15%,100%{fill:var(--ce)}}.c.cn{fill:var(--c1);animation-name:cn}@keyframes co{11.4%{fill:var(--c1)}11.42%,100%{fill:var(--ce)}}.c.co{fill:var(--c1);animation-name:co}@keyframes cp{79.57%{fill:var(--c3)}79.59%,100%{fill:var(--ce)}}.c.cp{fill:var(--c3);animation-name:cp}@keyframes cq{79.3%{fill:var(--c3)}79.32%,100%{fill:var(--ce)}}.c.cq{fill:var(--c3);animation-name:cq}@keyframes cr{11.93%{fill:var(--c1)}11.95%,100%{fill:var(--ce)}}.c.cr{fill:var(--c1);animation-name:cr}@keyframes cs{18.82%{fill:var(--c1)}18.84%,100%{fill:var(--ce)}}.c.cs{fill:var(--c1);animation-name:cs}@keyframes ct{19.09%{fill:var(--c1)}19.11%,100%{fill:var(--ce)}}.c.ct{fill:var(--c1);animation-name:ct}@keyframes cu{12.46%{fill:var(--c1)}12.48%,100%{fill:var(--ce)}}.c.cu{fill:var(--c1);animation-name:cu}@keyframes cv{17.76%{fill:var(--c1)}17.78%,100%{fill:var(--ce)}}.c.cv{fill:var(--c1);animation-name:cv}@keyframes cw{17.5%{fill:var(--c1)}17.52%,100%{fill:var(--ce)}}.c.cw{fill:var(--c1);animation-name:cw}@keyframes cx{17.23%{fill:var(--c1)}17.25%,100%{fill:var(--ce)}}.c.cx{fill:var(--c1);animation-name:cx}@keyframes cy{16.97%{fill:var(--c1)}16.99%,100%{fill:var(--ce)}}.c.cy{fill:var(--c1);animation-name:cy}@keyframes cz{16.7%{fill:var(--c1)}16.72%,100%{fill:var(--ce)}}.c.cz{fill:var(--c1);animation-name:cz}@keyframes c10{92.83%{fill:var(--c4)}92.85%,100%{fill:var(--ce)}}.c.c10{fill:var(--c4);animation-name:c10}@keyframes c11{83.54%{fill:var(--c3)}83.56%,100%{fill:var(--ce)}}.c.c11{fill:var(--c3);animation-name:c11}@keyframes c12{13.25%{fill:var(--c1)}13.27%,100%{fill:var(--ce)}}.c.c12{fill:var(--c1);animation-name:c12}@keyframes c13{81.16%{fill:var(--c3)}81.18%,100%{fill:var(--ce)}}.c.c13{fill:var(--c3);animation-name:c13}@keyframes c14{65.51%{fill:var(--c2)}65.53%,100%{fill:var(--ce)}}.c.c14{fill:var(--c2);animation-name:c14}@keyframes c15{16.44%{fill:var(--c1)}16.46%,100%{fill:var(--ce)}}.c.c15{fill:var(--c1);animation-name:c15}@keyframes c16{15.91%{fill:var(--c1)}15.93%,100%{fill:var(--ce)}}.c.c16{fill:var(--c1);animation-name:c16}@keyframes c17{82.48%{fill:var(--c3)}82.5%,100%{fill:var(--ce)}}.c.c17{fill:var(--c3);animation-name:c17}@keyframes c18{14.31%{fill:var(--c1)}14.33%,100%{fill:var(--ce)}}.c.c18{fill:var(--c1);animation-name:c18}@keyframes c19{15.37%{fill:var(--c1)}15.39%,100%{fill:var(--ce)}}.c.c19{fill:var(--c1);animation-name:c19}@keyframes c1a{14.84%{fill:var(--c1)}14.86%,100%{fill:var(--ce)}}.c.c1a{fill:var(--c1);animation-name:c1a}@keyframes c1b{90.44%{fill:var(--c4)}90.46%,100%{fill:var(--ce)}}.c.c1b{fill:var(--c4);animation-name:c1b}@keyframes c1c{32.88%{fill:var(--c1)}32.9%,100%{fill:var(--ce)}}.c.c1c{fill:var(--c1);animation-name:c1c}@keyframes c1d{33.15%{fill:var(--c1)}33.17%,100%{fill:var(--ce)}}.c.c1d{fill:var(--c1);animation-name:c1d}@keyframes c1e{89.11%{fill:var(--c4)}89.13%,100%{fill:var(--ce)}}.c.c1e{fill:var(--c4);animation-name:c1e}@keyframes c1f{89.38%{fill:var(--c4)}89.4%,100%{fill:var(--ce)}}.c.c1f{fill:var(--c4);animation-name:c1f}@keyframes c1g{88.05%{fill:var(--c3)}88.07%,100%{fill:var(--ce)}}.c.c1g{fill:var(--c3);animation-name:c1g}@keyframes c1h{33.68%{fill:var(--c1)}33.7%,100%{fill:var(--ce)}}.c.c1h{fill:var(--c1);animation-name:c1h}@keyframes c1i{50.12%{fill:var(--c1)}50.14%,100%{fill:var(--ce)}}.c.c1i{fill:var(--c1);animation-name:c1i}@keyframes c1j{62.59%{fill:var(--c2)}62.61%,100%{fill:var(--ce)}}.c.c1j{fill:var(--c2);animation-name:c1j}@keyframes c1k{35%{fill:var(--c1)}35.02%,100%{fill:var(--ce)}}.c.c1k{fill:var(--c1);animation-name:c1k}@keyframes c1l{35.27%{fill:var(--c1)}35.29%,100%{fill:var(--ce)}}.c.c1l{fill:var(--c1);animation-name:c1l}@keyframes c1m{49.59%{fill:var(--c1)}49.61%,100%{fill:var(--ce)}}.c.c1m{fill:var(--c1);animation-name:c1m}@keyframes c1n{36.06%{fill:var(--c1)}36.08%,100%{fill:var(--ce)}}.c.c1n{fill:var(--c1);animation-name:c1n}@keyframes c1o{36.33%{fill:var(--c1)}36.35%,100%{fill:var(--ce)}}.c.c1o{fill:var(--c1);animation-name:c1o}@keyframes c1p{48.53%{fill:var(--c1)}48.55%,100%{fill:var(--ce)}}.c.c1p{fill:var(--c1);animation-name:c1p}@keyframes c1q{36.59%{fill:var(--c1)}36.61%,100%{fill:var(--ce)}}.c.c1q{fill:var(--c1);animation-name:c1q}@keyframes c1r{47.47%{fill:var(--c1)}47.49%,100%{fill:var(--ce)}}.c.c1r{fill:var(--c1);animation-name:c1r}@keyframes c1s{48%{fill:var(--c1)}48.02%,100%{fill:var(--ce)}}.c.c1s{fill:var(--c1);animation-name:c1s}@keyframes c1t{48.27%{fill:var(--c1)}48.29%,100%{fill:var(--ce)}}.c.c1t{fill:var(--c1);animation-name:c1t}@keyframes c1u{37.13%{fill:var(--c1)}37.15%,100%{fill:var(--ce)}}.c.c1u{fill:var(--c1);animation-name:c1u}@keyframes c1v{46.94%{fill:var(--c1)}46.96%,100%{fill:var(--ce)}}.c.c1v{fill:var(--c1);animation-name:c1v}@keyframes c1w{38.72%{fill:var(--c1)}38.74%,100%{fill:var(--ce)}}.c.c1w{fill:var(--c1);animation-name:c1w}@keyframes c1x{38.45%{fill:var(--c1)}38.47%,100%{fill:var(--ce)}}.c.c1x{fill:var(--c1);animation-name:c1x}@keyframes c1y{38.19%{fill:var(--c1)}38.21%,100%{fill:var(--ce)}}.c.c1y{fill:var(--c1);animation-name:c1y}@keyframes c1z{37.39%{fill:var(--c1)}37.41%,100%{fill:var(--ce)}}.c.c1z{fill:var(--c1);animation-name:c1z}@keyframes c20{60.47%{fill:var(--c2)}60.49%,100%{fill:var(--ce)}}.c.c20{fill:var(--c2);animation-name:c20}@keyframes c21{38.98%{fill:var(--c1)}39%,100%{fill:var(--ce)}}.c.c21{fill:var(--c1);animation-name:c21}@keyframes c22{59.94%{fill:var(--c2)}59.96%,100%{fill:var(--ce)}}.c.c22{fill:var(--c2);animation-name:c22}@keyframes c23{37.92%{fill:var(--c1)}37.94%,100%{fill:var(--ce)}}.c.c23{fill:var(--c1);animation-name:c23}@keyframes c24{37.66%{fill:var(--c1)}37.68%,100%{fill:var(--ce)}}.c.c24{fill:var(--c1);animation-name:c24}@keyframes c25{39.51%{fill:var(--c1)}39.53%,100%{fill:var(--ce)}}.c.c25{fill:var(--c1);animation-name:c25}@keyframes c26{39.25%{fill:var(--c1)}39.27%,100%{fill:var(--ce)}}.c.c26{fill:var(--c1);animation-name:c26}@keyframes c27{45.88%{fill:var(--c1)}45.9%,100%{fill:var(--ce)}}.c.c27{fill:var(--c1);animation-name:c27}@keyframes c28{58.61%{fill:var(--c2)}58.63%,100%{fill:var(--ce)}}.c.c28{fill:var(--c2);animation-name:c28}@keyframes c29{41.37%{fill:var(--c1)}41.39%,100%{fill:var(--ce)}}.c.c29{fill:var(--c1);animation-name:c29}@keyframes c2a{40.57%{fill:var(--c1)}40.59%,100%{fill:var(--ce)}}.c.c2a{fill:var(--c1);animation-name:c2a}@keyframes c2b{42.96%{fill:var(--c1)}42.98%,100%{fill:var(--ce)}}.c.c2b{fill:var(--c1);animation-name:c2b}@keyframes c2c{44.02%{fill:var(--c1)}44.04%,100%{fill:var(--ce)}}.c.c2c{fill:var(--c1);animation-name:c2c}@keyframes c2d{40.84%{fill:var(--c1)}40.86%,100%{fill:var(--ce)}}.c.c2d{fill:var(--c1);animation-name:c2d}@keyframes c2e{42.43%{fill:var(--c1)}42.45%,100%{fill:var(--ce)}}.c.c2e{fill:var(--c1);animation-name:c2e}@keyframes c2f{42.7%{fill:var(--c1)}42.72%,100%{fill:var(--ce)}}.c.c2f{fill:var(--c1);animation-name:c2f}@keyframes c2g{43.49%{fill:var(--c1)}43.51%,100%{fill:var(--ce)}}.c.c2g{fill:var(--c1);animation-name:c2g}@keyframes c2h{55.43%{fill:var(--c1)}55.45%,100%{fill:var(--ce)}}.c.c2h{fill:var(--c1);animation-name:c2h}@keyframes c2i{56.49%{fill:var(--c1)}56.51%,100%{fill:var(--ce)}}.c.c2i{fill:var(--c1);animation-name:c2i}.u{transform-origin:0 0;transform:scale(0,1);animation:none linear 37700ms infinite}@keyframes u0{1.85%{transform:scale(0.000,1)}1.87%,2.38%{transform:scale(0.014,1)}2.4%,2.91%{transform:scale(0.028,1)}2.93%,3.7%{transform:scale(0.042,1)}3.72%,4.23%{transform:scale(0.056,1)}4.25%,4.5%{transform:scale(0.070,1)}4.52%,4.76%{transform:scale(0.085,1)}4.78%,5.3%{transform:scale(0.099,1)}5.32%,6.62%{transform:scale(0.113,1)}6.64%,6.89%{transform:scale(0.127,1)}6.91%,7.15%{transform:scale(0.141,1)}7.17%,7.42%{transform:scale(0.155,1)}7.44%,7.95%{transform:scale(0.169,1)}7.97%,8.74%{transform:scale(0.183,1)}8.76%,10.33%{transform:scale(0.197,1)}10.35%,10.6%{transform:scale(0.211,1)}10.62%,11.13%{transform:scale(0.225,1)}11.15%,11.4%{transform:scale(0.239,1)}11.42%,11.93%{transform:scale(0.254,1)}11.95%,12.46%{transform:scale(0.268,1)}12.48%,13.25%{transform:scale(0.282,1)}13.27%,14.31%{transform:scale(0.296,1)}14.33%,14.84%{transform:scale(0.310,1)}14.86%,15.37%{transform:scale(0.324,1)}15.39%,15.91%{transform:scale(0.338,1)}15.93%,16.44%{transform:scale(0.352,1)}16.46%,16.7%{transform:scale(0.366,1)}16.72%,16.97%{transform:scale(0.380,1)}16.99%,17.23%{transform:scale(0.394,1)}17.25%,17.5%{transform:scale(0.408,1)}17.52%,17.76%{transform:scale(0.423,1)}17.78%,18.82%{transform:scale(0.437,1)}18.84%,19.09%{transform:scale(0.451,1)}19.11%,20.41%{transform:scale(0.465,1)}20.43%,24.13%{transform:scale(0.479,1)}24.15%,32.88%{transform:scale(0.493,1)}32.9%,33.15%{transform:scale(0.507,1)}33.17%,33.68%{transform:scale(0.521,1)}33.7%,35%{transform:scale(0.535,1)}35.02%,35.27%{transform:scale(0.549,1)}35.29%,36.06%{transform:scale(0.563,1)}36.08%,36.33%{transform:scale(0.577,1)}36.35%,36.59%{transform:scale(0.592,1)}36.61%,37.13%{transform:scale(0.606,1)}37.15%,37.39%{transform:scale(0.620,1)}37.41%,37.66%{transform:scale(0.634,1)}37.68%,37.92%{transform:scale(0.648,1)}37.94%,38.19%{transform:scale(0.662,1)}38.21%,38.45%{transform:scale(0.676,1)}38.47%,38.72%{transform:scale(0.690,1)}38.74%,38.98%{transform:scale(0.704,1)}39%,39.25%{transform:scale(0.718,1)}39.27%,39.51%{transform:scale(0.732,1)}39.53%,40.57%{transform:scale(0.746,1)}40.59%,40.84%{transform:scale(0.761,1)}40.86%,41.37%{transform:scale(0.775,1)}41.39%,42.43%{transform:scale(0.789,1)}42.45%,42.7%{transform:scale(0.803,1)}42.72%,42.96%{transform:scale(0.817,1)}42.98%,43.49%{transform:scale(0.831,1)}43.51%,44.02%{transform:scale(0.845,1)}44.04%,45.88%{transform:scale(0.859,1)}45.9%,46.94%{transform:scale(0.873,1)}46.96%,47.47%{transform:scale(0.887,1)}47.49%,48%{transform:scale(0.901,1)}48.02%,48.27%{transform:scale(0.915,1)}48.29%,48.53%{transform:scale(0.930,1)}48.55%,49.59%{transform:scale(0.944,1)}49.61%,50.12%{transform:scale(0.958,1)}50.14%,55.43%{transform:scale(0.972,1)}55.45%,56.49%{transform:scale(0.986,1)}56.51%,100%{transform:scale(1.000,1)}}.u.u0{fill:var(--c1);animation-name:u0;transform-origin:0.0px 0}@keyframes u1{58.61%{transform:scale(0.000,1)}58.63%,59.94%{transform:scale(0.100,1)}59.96%,60.47%{transform:scale(0.200,1)}60.49%,62.59%{transform:scale(0.300,1)}62.61%,65.51%{transform:scale(0.400,1)}65.53%,68.43%{transform:scale(0.500,1)}68.45%,70.02%{transform:scale(0.600,1)}70.04%,70.81%{transform:scale(0.700,1)}70.83%,71.87%{transform:scale(0.800,1)}71.89%,74.26%{transform:scale(0.900,1)}74.28%,100%{transform:scale(1.000,1)}}.u.u1{fill:var(--c2);animation-name:u1;transform-origin:661.6px 0}@keyframes u2{79.3%{transform:scale(0.000,1)}79.32%,79.57%{transform:scale(0.167,1)}79.59%,81.16%{transform:scale(0.333,1)}81.18%,82.48%{transform:scale(0.500,1)}82.5%,83.54%{transform:scale(0.667,1)}83.56%,88.05%{transform:scale(0.833,1)}88.07%,100%{transform:scale(1.000,1)}}.u.u2{fill:var(--c3);animation-name:u2;transform-origin:754.8px 0}@keyframes u3{89.11%{transform:scale(0.000,1)}89.13%,89.38%{transform:scale(0.250,1)}89.4%,90.44%{transform:scale(0.500,1)}90.46%,92.83%{transform:scale(0.750,1)}92.85%,100%{transform:scale(1.000,1)}}.u.u3{fill:var(--c4);animation-name:u3;transform-origin:810.7px 0}.s{shape-rendering:geometricPrecision;fill:var(--cs);animation:none linear 37700ms infinite}@keyframes s0{0%,99.73%{transform:translate(0px,-16px)}0.27%{transform:translate(0px,0px)}1.06%{transform:translate(48px,0px)}2.39%{transform:translate(48px,80px)}3.71%{transform:translate(128px,80px)}4.24%{transform:translate(128px,48px)}4.51%{transform:translate(112px,48px)}5.31%{transform:translate(112px,96px)}6.37%{transform:translate(176px,96px)}7.96%{transform:translate(176px,0px)}8.49%,70.56%{transform:translate(144px,0px)}8.75%{transform:translate(144px,16px)}10.34%{transform:translate(240px,16px)}11.41%{transform:translate(240px,80px)}12.73%,29.18%,83.82%{transform:translate(320px,80px)}13%{transform:translate(320px,96px)}14.06%{transform:translate(384px,96px)}14.32%{transform:translate(384px,80px)}14.85%{transform:translate(416px,80px)}15.12%{transform:translate(416px,64px)}15.38%{transform:translate(400px,64px)}15.65%{transform:translate(400px,48px)}16.71%,92.57%{transform:translate(336px,48px)}17.24%{transform:translate(336px,16px)}17.51%{transform:translate(320px,16px)}17.77%{transform:translate(320px,0px)}18.3%{transform:translate(288px,0px)}19.1%{transform:translate(288px,48px)}23.61%{transform:translate(16px,48px)}24.14%{transform:translate(16px,80px)}29.71%,84.35%{transform:translate(320px,48px)}31.83%,86.47%{transform:translate(448px,48px)}32.1%,86.74%{transform:translate(448px,32px)}32.63%{transform:translate(480px,32px)}32.89%,90.19%{transform:translate(480px,48px)}33.42%{transform:translate(512px,48px)}33.69%,87.8%{transform:translate(512px,32px)}33.95%{transform:translate(496px,32px)}34.22%{transform:translate(496px,48px)}35.01%{transform:translate(544px,48px)}35.28%{transform:translate(544px,64px)}35.54%{transform:translate(560px,64px)}36.07%{transform:translate(560px,96px)}36.87%{transform:translate(608px,96px)}37.14%{transform:translate(608px,80px)}37.67%{transform:translate(640px,80px)}37.93%{transform:translate(640px,64px)}38.2%{transform:translate(624px,64px)}38.73%,46.68%{transform:translate(624px,32px)}39.26%,46.15%{transform:translate(656px,32px)}39.52%{transform:translate(656px,16px)}40.85%,41.91%{transform:translate(736px,16px)}41.11%{transform:translate(736px,0px)}41.38%{transform:translate(720px,0px)}41.64%{transform:translate(720px,16px)}42.71%{transform:translate(736px,64px)}42.97%{transform:translate(720px,64px)}43.24%{transform:translate(720px,80px)}43.5%{transform:translate(736px,80px)}43.77%{transform:translate(736px,96px)}44.03%{transform:translate(720px,96px)}44.83%{transform:translate(720px,48px)}45.89%{transform:translate(656px,48px)}47.21%{transform:translate(624px,0px)}47.48%{transform:translate(608px,0px)}48.28%{transform:translate(608px,48px)}48.54%{transform:translate(592px,48px)}49.07%{transform:translate(592px,16px)}50.13%,62.33%{transform:translate(528px,16px)}50.4%{transform:translate(528px,0px)}55.17%{transform:translate(816px,0px)}55.44%{transform:translate(816px,16px)}55.7%{transform:translate(832px,16px)}56.5%{transform:translate(832px,64px)}58.62%{transform:translate(704px,64px)}58.89%{transform:translate(704px,48px)}59.95%{transform:translate(640px,48px)}60.48%{transform:translate(640px,16px)}62.6%{transform:translate(528px,32px)}66.84%{transform:translate(272px,32px)}67.11%{transform:translate(272px,48px)}68.17%{transform:translate(208px,48px)}68.44%{transform:translate(208px,64px)}68.7%{transform:translate(192px,64px)}69.23%{transform:translate(192px,32px)}70.03%{transform:translate(144px,32px)}71.62%{transform:translate(80px,0px)}71.88%,97.88%{transform:translate(80px,16px)}72.94%{transform:translate(16px,16px)}74.27%{transform:translate(16px,96px)}78.25%{transform:translate(256px,96px)}79.58%{transform:translate(256px,16px)}81.7%{transform:translate(384px,16px)}82.49%{transform:translate(384px,64px)}83.02%{transform:translate(352px,64px)}83.29%{transform:translate(352px,80px)}88.06%{transform:translate(512px,16px)}88.33%{transform:translate(496px,16px)}89.39%{transform:translate(496px,80px)}89.66%{transform:translate(480px,80px)}92.84%{transform:translate(336px,64px)}97.08%{transform:translate(80px,64px)}98.41%{transform:translate(48px,16px)}98.94%{transform:translate(48px,-16px)}}.s.s0{transform:translate(0px,-16px);animation-name:s0}@keyframes s1{0%,99.73%{transform:translate(16px,-16px)}0.27%{transform:translate(0px,-16px)}0.53%{transform:translate(0px,0px)}1.33%{transform:translate(48px,0px)}2.65%{transform:translate(48px,80px)}3.98%{transform:translate(128px,80px)}4.51%{transform:translate(128px,48px)}4.77%{transform:translate(112px,48px)}5.57%{transform:translate(112px,96px)}6.63%{transform:translate(176px,96px)}8.22%{transform:translate(176px,0px)}8.75%,70.82%{transform:translate(144px,0px)}9.02%{transform:translate(144px,16px)}10.61%{transform:translate(240px,16px)}11.67%{transform:translate(240px,80px)}13%,29.44%,84.08%{transform:translate(320px,80px)}13.26%{transform:translate(320px,96px)}14.32%{transform:translate(384px,96px)}14.59%{transform:translate(384px,80px)}15.12%{transform:translate(416px,80px)}15.38%{transform:translate(416px,64px)}15.65%{transform:translate(400px,64px)}15.92%{transform:translate(400px,48px)}16.98%,92.84%{transform:translate(336px,48px)}17.51%{transform:translate(336px,16px)}17.77%{transform:translate(320px,16px)}18.04%{transform:translate(320px,0px)}18.57%{transform:translate(288px,0px)}19.36%{transform:translate(288px,48px)}23.87%{transform:translate(16px,48px)}24.4%{transform:translate(16px,80px)}29.97%,84.62%{transform:translate(320px,48px)}32.1%,86.74%{transform:translate(448px,48px)}32.36%,87%{transform:translate(448px,32px)}32.89%{transform:translate(480px,32px)}33.16%,90.45%{transform:translate(480px,48px)}33.69%{transform:translate(512px,48px)}33.95%,88.06%{transform:translate(512px,32px)}34.22%{transform:translate(496px,32px)}34.48%{transform:translate(496px,48px)}35.28%{transform:translate(544px,48px)}35.54%{transform:translate(544px,64px)}35.81%{transform:translate(560px,64px)}36.34%{transform:translate(560px,96px)}37.14%{transform:translate(608px,96px)}37.4%{transform:translate(608px,80px)}37.93%{transform:translate(640px,80px)}38.2%{transform:translate(640px,64px)}38.46%{transform:translate(624px,64px)}38.99%,46.95%{transform:translate(624px,32px)}39.52%,46.42%{transform:translate(656px,32px)}39.79%{transform:translate(656px,16px)}41.11%,42.18%{transform:translate(736px,16px)}41.38%{transform:translate(736px,0px)}41.64%{transform:translate(720px,0px)}41.91%{transform:translate(720px,16px)}42.97%{transform:translate(736px,64px)}43.24%{transform:translate(720px,64px)}43.5%{transform:translate(720px,80px)}43.77%{transform:translate(736px,80px)}44.03%{transform:translate(736px,96px)}44.3%{transform:translate(720px,96px)}45.09%{transform:translate(720px,48px)}46.15%{transform:translate(656px,48px)}47.48%{transform:translate(624px,0px)}47.75%{transform:translate(608px,0px)}48.54%{transform:translate(608px,48px)}48.81%{transform:translate(592px,48px)}49.34%{transform:translate(592px,16px)}50.4%,62.6%{transform:translate(528px,16px)}50.66%{transform:translate(528px,0px)}55.44%{transform:translate(816px,0px)}55.7%{transform:translate(816px,16px)}55.97%{transform:translate(832px,16px)}56.76%{transform:translate(832px,64px)}58.89%{transform:translate(704px,64px)}59.15%{transform:translate(704px,48px)}60.21%{transform:translate(640px,48px)}60.74%{transform:translate(640px,16px)}62.86%{transform:translate(528px,32px)}67.11%{transform:translate(272px,32px)}67.37%{transform:translate(272px,48px)}68.44%{transform:translate(208px,48px)}68.7%{transform:translate(208px,64px)}68.97%{transform:translate(192px,64px)}69.5%{transform:translate(192px,32px)}70.29%{transform:translate(144px,32px)}71.88%{transform:translate(80px,0px)}72.15%,98.14%{transform:translate(80px,16px)}73.21%{transform:translate(16px,16px)}74.54%{transform:translate(16px,96px)}78.51%{transform:translate(256px,96px)}79.84%{transform:translate(256px,16px)}81.96%{transform:translate(384px,16px)}82.76%{transform:translate(384px,64px)}83.29%{transform:translate(352px,64px)}83.55%{transform:translate(352px,80px)}88.33%{transform:translate(512px,16px)}88.59%{transform:translate(496px,16px)}89.66%{transform:translate(496px,80px)}89.92%{transform:translate(480px,80px)}93.1%{transform:translate(336px,64px)}97.35%{transform:translate(80px,64px)}98.67%{transform:translate(48px,16px)}99.2%{transform:translate(48px,-16px)}}.s.s1{transform:translate(16px,-16px);animation-name:s1}@keyframes s2{0%,99.73%{transform:translate(32px,-16px)}0.53%{transform:translate(0px,-16px)}0.8%{transform:translate(0px,0px)}1.59%{transform:translate(48px,0px)}2.92%{transform:translate(48px,80px)}4.24%{transform:translate(128px,80px)}4.77%{transform:translate(128px,48px)}5.04%{transform:translate(112px,48px)}5.84%{transform:translate(112px,96px)}6.9%{transform:translate(176px,96px)}8.49%{transform:translate(176px,0px)}9.02%,71.09%{transform:translate(144px,0px)}9.28%{transform:translate(144px,16px)}10.88%{transform:translate(240px,16px)}11.94%{transform:translate(240px,80px)}13.26%,29.71%,84.35%{transform:translate(320px,80px)}13.53%{transform:translate(320px,96px)}14.59%{transform:translate(384px,96px)}14.85%{transform:translate(384px,80px)}15.38%{transform:translate(416px,80px)}15.65%{transform:translate(416px,64px)}15.92%{transform:translate(400px,64px)}16.18%{transform:translate(400px,48px)}17.24%,93.1%{transform:translate(336px,48px)}17.77%{transform:translate(336px,16px)}18.04%{transform:translate(320px,16px)}18.3%{transform:translate(320px,0px)}18.83%{transform:translate(288px,0px)}19.63%{transform:translate(288px,48px)}24.14%{transform:translate(16px,48px)}24.67%{transform:translate(16px,80px)}30.24%,84.88%{transform:translate(320px,48px)}32.36%,87%{transform:translate(448px,48px)}32.63%,87.27%{transform:translate(448px,32px)}33.16%{transform:translate(480px,32px)}33.42%,90.72%{transform:translate(480px,48px)}33.95%{transform:translate(512px,48px)}34.22%,88.33%{transform:translate(512px,32px)}34.48%{transform:translate(496px,32px)}34.75%{transform:translate(496px,48px)}35.54%{transform:translate(544px,48px)}35.81%{transform:translate(544px,64px)}36.07%{transform:translate(560px,64px)}36.6%{transform:translate(560px,96px)}37.4%{transform:translate(608px,96px)}37.67%{transform:translate(608px,80px)}38.2%{transform:translate(640px,80px)}38.46%{transform:translate(640px,64px)}38.73%{transform:translate(624px,64px)}39.26%,47.21%{transform:translate(624px,32px)}39.79%,46.68%{transform:translate(656px,32px)}40.05%{transform:translate(656px,16px)}41.38%,42.44%{transform:translate(736px,16px)}41.64%{transform:translate(736px,0px)}41.91%{transform:translate(720px,0px)}42.18%{transform:translate(720px,16px)}43.24%{transform:translate(736px,64px)}43.5%{transform:translate(720px,64px)}43.77%{transform:translate(720px,80px)}44.03%{transform:translate(736px,80px)}44.3%{transform:translate(736px,96px)}44.56%{transform:translate(720px,96px)}45.36%{transform:translate(720px,48px)}46.42%{transform:translate(656px,48px)}47.75%{transform:translate(624px,0px)}48.01%{transform:translate(608px,0px)}48.81%{transform:translate(608px,48px)}49.07%{transform:translate(592px,48px)}49.6%{transform:translate(592px,16px)}50.66%,62.86%{transform:translate(528px,16px)}50.93%{transform:translate(528px,0px)}55.7%{transform:translate(816px,0px)}55.97%{transform:translate(816px,16px)}56.23%{transform:translate(832px,16px)}57.03%{transform:translate(832px,64px)}59.15%{transform:translate(704px,64px)}59.42%{transform:translate(704px,48px)}60.48%{transform:translate(640px,48px)}61.01%{transform:translate(640px,16px)}63.13%{transform:translate(528px,32px)}67.37%{transform:translate(272px,32px)}67.64%{transform:translate(272px,48px)}68.7%{transform:translate(208px,48px)}68.97%{transform:translate(208px,64px)}69.23%{transform:translate(192px,64px)}69.76%{transform:translate(192px,32px)}70.56%{transform:translate(144px,32px)}72.15%{transform:translate(80px,0px)}72.41%,98.41%{transform:translate(80px,16px)}73.47%{transform:translate(16px,16px)}74.8%{transform:translate(16px,96px)}78.78%{transform:translate(256px,96px)}80.11%{transform:translate(256px,16px)}82.23%{transform:translate(384px,16px)}83.02%{transform:translate(384px,64px)}83.55%{transform:translate(352px,64px)}83.82%{transform:translate(352px,80px)}88.59%{transform:translate(512px,16px)}88.86%{transform:translate(496px,16px)}89.92%{transform:translate(496px,80px)}90.19%{transform:translate(480px,80px)}93.37%{transform:translate(336px,64px)}97.61%{transform:translate(80px,64px)}98.94%{transform:translate(48px,16px)}99.47%{transform:translate(48px,-16px)}}.s.s2{transform:translate(32px,-16px);animation-name:s2}@keyframes s3{0%,99.73%{transform:translate(48px,-16px)}0.8%{transform:translate(0px,-16px)}1.06%{transform:translate(0px,0px)}1.86%{transform:translate(48px,0px)}3.18%{transform:translate(48px,80px)}4.51%{transform:translate(128px,80px)}5.04%{transform:translate(128px,48px)}5.31%{transform:translate(112px,48px)}6.1%{transform:translate(112px,96px)}7.16%{transform:translate(176px,96px)}8.75%{transform:translate(176px,0px)}9.28%,71.35%{transform:translate(144px,0px)}9.55%{transform:translate(144px,16px)}11.14%{transform:translate(240px,16px)}12.2%{transform:translate(240px,80px)}13.53%,29.97%,84.62%{transform:translate(320px,80px)}13.79%{transform:translate(320px,96px)}14.85%{transform:translate(384px,96px)}15.12%{transform:translate(384px,80px)}15.65%{transform:translate(416px,80px)}15.92%{transform:translate(416px,64px)}16.18%{transform:translate(400px,64px)}16.45%{transform:translate(400px,48px)}17.51%,93.37%{transform:translate(336px,48px)}18.04%{transform:translate(336px,16px)}18.3%{transform:translate(320px,16px)}18.57%{transform:translate(320px,0px)}19.1%{transform:translate(288px,0px)}19.89%{transform:translate(288px,48px)}24.4%{transform:translate(16px,48px)}24.93%{transform:translate(16px,80px)}30.5%,85.15%{transform:translate(320px,48px)}32.63%,87.27%{transform:translate(448px,48px)}32.89%,87.53%{transform:translate(448px,32px)}33.42%{transform:translate(480px,32px)}33.69%,90.98%{transform:translate(480px,48px)}34.22%{transform:translate(512px,48px)}34.48%,88.59%{transform:translate(512px,32px)}34.75%{transform:translate(496px,32px)}35.01%{transform:translate(496px,48px)}35.81%{transform:translate(544px,48px)}36.07%{transform:translate(544px,64px)}36.34%{transform:translate(560px,64px)}36.87%{transform:translate(560px,96px)}37.67%{transform:translate(608px,96px)}37.93%{transform:translate(608px,80px)}38.46%{transform:translate(640px,80px)}38.73%{transform:translate(640px,64px)}38.99%{transform:translate(624px,64px)}39.52%,47.48%{transform:translate(624px,32px)}40.05%,46.95%{transform:translate(656px,32px)}40.32%{transform:translate(656px,16px)}41.64%,42.71%{transform:translate(736px,16px)}41.91%{transform:translate(736px,0px)}42.18%{transform:translate(720px,0px)}42.44%{transform:translate(720px,16px)}43.5%{transform:translate(736px,64px)}43.77%{transform:translate(720px,64px)}44.03%{transform:translate(720px,80px)}44.3%{transform:translate(736px,80px)}44.56%{transform:translate(736px,96px)}44.83%{transform:translate(720px,96px)}45.62%{transform:translate(720px,48px)}46.68%{transform:translate(656px,48px)}48.01%{transform:translate(624px,0px)}48.28%{transform:translate(608px,0px)}49.07%{transform:translate(608px,48px)}49.34%{transform:translate(592px,48px)}49.87%{transform:translate(592px,16px)}50.93%,63.13%{transform:translate(528px,16px)}51.19%{transform:translate(528px,0px)}55.97%{transform:translate(816px,0px)}56.23%{transform:translate(816px,16px)}56.5%{transform:translate(832px,16px)}57.29%{transform:translate(832px,64px)}59.42%{transform:translate(704px,64px)}59.68%{transform:translate(704px,48px)}60.74%{transform:translate(640px,48px)}61.27%{transform:translate(640px,16px)}63.4%{transform:translate(528px,32px)}67.64%{transform:translate(272px,32px)}67.9%{transform:translate(272px,48px)}68.97%{transform:translate(208px,48px)}69.23%{transform:translate(208px,64px)}69.5%{transform:translate(192px,64px)}70.03%{transform:translate(192px,32px)}70.82%{transform:translate(144px,32px)}72.41%{transform:translate(80px,0px)}72.68%,98.67%{transform:translate(80px,16px)}73.74%{transform:translate(16px,16px)}75.07%{transform:translate(16px,96px)}79.05%{transform:translate(256px,96px)}80.37%{transform:translate(256px,16px)}82.49%{transform:translate(384px,16px)}83.29%{transform:translate(384px,64px)}83.82%{transform:translate(352px,64px)}84.08%{transform:translate(352px,80px)}88.86%{transform:translate(512px,16px)}89.12%{transform:translate(496px,16px)}90.19%{transform:translate(496px,80px)}90.45%{transform:translate(480px,80px)}93.63%{transform:translate(336px,64px)}97.88%{transform:translate(80px,64px)}99.2%{transform:translate(48px,16px)}}.s.s3{transform:translate(48px,-16px);animation-name:s3}</style><rect class="c" x="2" y="2" rx="2" ry="2"/><rect class="c" x="2" y="18" rx="2" ry="2"/><rect class="c" x="2" y="34" rx="2" ry="2"/><rect class="c" x="2" y="50" rx="2" ry="2"/><rect class="c" x="2" y="66" rx="2" ry="2"/><rect class="c" x="2" y="82" rx="2" ry="2"/><rect class="c" x="2" y="98" rx="2" ry="2"/><rect class="c" x="18" y="2" rx="2" ry="2"/><rect class="c" x="18" y="18" rx="2" ry="2"/><rect class="c" x="18" y="34" rx="2" ry="2"/><rect class="c" x="18" y="50" rx="2" ry="2"/><rect class="c" x="18" y="66" rx="2" ry="2"/><rect class="c c0" x="18" y="82" rx="2" ry="2"/><rect class="c c1" x="18" y="98" rx="2" ry="2"/><rect class="c" x="34" y="2" rx="2" ry="2"/><rect class="c" x="34" y="18" rx="2" ry="2"/><rect class="c" x="34" y="34" rx="2" ry="2"/><rect class="c" x="34" y="50" rx="2" ry="2"/><rect class="c" x="34" y="66" rx="2" ry="2"/><rect class="c" x="34" y="82" rx="2" ry="2"/><rect class="c" x="34" y="98" rx="2" ry="2"/><rect class="c" x="50" y="2" rx="2" ry="2"/><rect class="c" x="50" y="18" rx="2" ry="2"/><rect class="c" x="50" y="34" rx="2" ry="2"/><rect class="c c2" x="50" y="50" rx="2" ry="2"/><rect class="c" x="50" y="66" rx="2" ry="2"/><rect class="c c3" x="50" y="82" rx="2" ry="2"/><rect class="c" x="50" y="98" rx="2" ry="2"/><rect class="c" x="66" y="2" rx="2" ry="2"/><rect class="c" x="66" y="18" rx="2" ry="2"/><rect class="c" x="66" y="34" rx="2" ry="2"/><rect class="c" x="66" y="50" rx="2" ry="2"/><rect class="c" x="66" y="66" rx="2" ry="2"/><rect class="c" x="66" y="82" rx="2" ry="2"/><rect class="c" x="66" y="98" rx="2" ry="2"/><rect class="c" x="82" y="2" rx="2" ry="2"/><rect class="c c4" x="82" y="18" rx="2" ry="2"/><rect class="c" x="82" y="34" rx="2" ry="2"/><rect class="c" x="82" y="50" rx="2" ry="2"/><rect class="c" x="82" y="66" rx="2" ry="2"/><rect class="c c5" x="82" y="82" rx="2" ry="2"/><rect class="c" x="82" y="98" rx="2" ry="2"/><rect class="c" x="98" y="2" rx="2" ry="2"/><rect class="c" x="98" y="18" rx="2" ry="2"/><rect class="c" x="98" y="34" rx="2" ry="2"/><rect class="c" x="98" y="50" rx="2" ry="2"/><rect class="c" x="98" y="66" rx="2" ry="2"/><rect class="c" x="98" y="82" rx="2" ry="2"/><rect class="c" x="98" y="98" rx="2" ry="2"/><rect class="c" x="114" y="2" rx="2" ry="2"/><rect class="c" x="114" y="18" rx="2" ry="2"/><rect class="c" x="114" y="34" rx="2" ry="2"/><rect class="c c6" x="114" y="50" rx="2" ry="2"/><rect class="c c7" x="114" y="66" rx="2" ry="2"/><rect class="c" x="114" y="82" rx="2" ry="2"/><rect class="c c8" x="114" y="98" rx="2" ry="2"/><rect class="c c9" x="130" y="2" rx="2" ry="2"/><rect class="c" x="130" y="18" rx="2" ry="2"/><rect class="c" x="130" y="34" rx="2" ry="2"/><rect class="c ca" x="130" y="50" rx="2" ry="2"/><rect class="c" x="130" y="66" rx="2" ry="2"/><rect class="c cb" x="130" y="82" rx="2" ry="2"/><rect class="c" x="130" y="98" rx="2" ry="2"/><rect class="c" x="146" y="2" rx="2" ry="2"/><rect class="c cc" x="146" y="18" rx="2" ry="2"/><rect class="c cd" x="146" y="34" rx="2" ry="2"/><rect class="c" x="146" y="50" rx="2" ry="2"/><rect class="c" x="146" y="66" rx="2" ry="2"/><rect class="c" x="146" y="82" rx="2" ry="2"/><rect class="c" x="146" y="98" rx="2" ry="2"/><rect class="c" x="162" y="2" rx="2" ry="2"/><rect class="c" x="162" y="18" rx="2" ry="2"/><rect class="c" x="162" y="34" rx="2" ry="2"/><rect class="c" x="162" y="50" rx="2" ry="2"/><rect class="c" x="162" y="66" rx="2" ry="2"/><rect class="c" x="162" y="82" rx="2" ry="2"/><rect class="c" x="162" y="98" rx="2" ry="2"/><rect class="c ce" x="178" y="2" rx="2" ry="2"/><rect class="c" x="178" y="18" rx="2" ry="2"/><rect class="c cf" x="178" y="34" rx="2" ry="2"/><rect class="c cg" x="178" y="50" rx="2" ry="2"/><rect class="c ch" x="178" y="66" rx="2" ry="2"/><rect class="c ci" x="178" y="82" rx="2" ry="2"/><rect class="c" x="178" y="98" rx="2" ry="2"/><rect class="c" x="194" y="2" rx="2" ry="2"/><rect class="c" x="194" y="18" rx="2" ry="2"/><rect class="c" x="194" y="34" rx="2" ry="2"/><rect class="c" x="194" y="50" rx="2" ry="2"/><rect class="c" x="194" y="66" rx="2" ry="2"/><rect class="c" x="194" y="82" rx="2" ry="2"/><rect class="c" x="194" y="98" rx="2" ry="2"/><rect class="c" x="210" y="2" rx="2" ry="2"/><rect class="c" x="210" y="18" rx="2" ry="2"/><rect class="c" x="210" y="34" rx="2" ry="2"/><rect class="c cj" x="210" y="50" rx="2" ry="2"/><rect class="c ck" x="210" y="66" rx="2" ry="2"/><rect class="c" x="210" y="82" rx="2" ry="2"/><rect class="c" x="210" y="98" rx="2" ry="2"/><rect class="c" x="226" y="2" rx="2" ry="2"/><rect class="c" x="226" y="18" rx="2" ry="2"/><rect class="c" x="226" y="34" rx="2" ry="2"/><rect class="c" x="226" y="50" rx="2" ry="2"/><rect class="c" x="226" y="66" rx="2" ry="2"/><rect class="c" x="226" y="82" rx="2" ry="2"/><rect class="c" x="226" y="98" rx="2" ry="2"/><rect class="c" x="242" y="2" rx="2" ry="2"/><rect class="c cl" x="242" y="18" rx="2" ry="2"/><rect class="c cm" x="242" y="34" rx="2" ry="2"/><rect class="c" x="242" y="50" rx="2" ry="2"/><rect class="c cn" x="242" y="66" rx="2" ry="2"/><rect class="c co" x="242" y="82" rx="2" ry="2"/><rect class="c" x="242" y="98" rx="2" ry="2"/><rect class="c" x="258" y="2" rx="2" ry="2"/><rect class="c cp" x="258" y="18" rx="2" ry="2"/><rect class="c cq" x="258" y="34" rx="2" ry="2"/><rect class="c" x="258" y="50" rx="2" ry="2"/><rect class="c" x="258" y="66" rx="2" ry="2"/><rect class="c" x="258" y="82" rx="2" ry="2"/><rect class="c" x="258" y="98" rx="2" ry="2"/><rect class="c" x="274" y="2" rx="2" ry="2"/><rect class="c" x="274" y="18" rx="2" ry="2"/><rect class="c" x="274" y="34" rx="2" ry="2"/><rect class="c" x="274" y="50" rx="2" ry="2"/><rect class="c" x="274" y="66" rx="2" ry="2"/><rect class="c cr" x="274" y="82" rx="2" ry="2"/><rect class="c" x="274" y="98" rx="2" ry="2"/><rect class="c" x="290" y="2" rx="2" ry="2"/><rect class="c" x="290" y="18" rx="2" ry="2"/><rect class="c cs" x="290" y="34" rx="2" ry="2"/><rect class="c ct" x="290" y="50" rx="2" ry="2"/><rect class="c" x="290" y="66" rx="2" ry="2"/><rect class="c" x="290" y="82" rx="2" ry="2"/><rect class="c" x="290" y="98" rx="2" ry="2"/><rect class="c" x="306" y="2" rx="2" ry="2"/><rect class="c" x="306" y="18" rx="2" ry="2"/><rect class="c" x="306" y="34" rx="2" ry="2"/><rect class="c" x="306" y="50" rx="2" ry="2"/><rect class="c" x="306" y="66" rx="2" ry="2"/><rect class="c cu" x="306" y="82" rx="2" ry="2"/><rect class="c" x="306" y="98" rx="2" ry="2"/><rect class="c cv" x="322" y="2" rx="2" ry="2"/><rect class="c cw" x="322" y="18" rx="2" ry="2"/><rect class="c" x="322" y="34" rx="2" ry="2"/><rect class="c" x="322" y="50" rx="2" ry="2"/><rect class="c" x="322" y="66" rx="2" ry="2"/><rect class="c" x="322" y="82" rx="2" ry="2"/><rect class="c" x="322" y="98" rx="2" ry="2"/><rect class="c" x="338" y="2" rx="2" ry="2"/><rect class="c cx" x="338" y="18" rx="2" ry="2"/><rect class="c cy" x="338" y="34" rx="2" ry="2"/><rect class="c cz" x="338" y="50" rx="2" ry="2"/><rect class="c c10" x="338" y="66" rx="2" ry="2"/><rect class="c c11" x="338" y="82" rx="2" ry="2"/><rect class="c c12" x="338" y="98" rx="2" ry="2"/><rect class="c" x="354" y="2" rx="2" ry="2"/><rect class="c c13" x="354" y="18" rx="2" ry="2"/><rect class="c c14" x="354" y="34" rx="2" ry="2"/><rect class="c c15" x="354" y="50" rx="2" ry="2"/><rect class="c" x="354" y="66" rx="2" ry="2"/><rect class="c" x="354" y="82" rx="2" ry="2"/><rect class="c" x="354" y="98" rx="2" ry="2"/><rect class="c" x="370" y="2" rx="2" ry="2"/><rect class="c" x="370" y="18" rx="2" ry="2"/><rect class="c" x="370" y="34" rx="2" ry="2"/><rect class="c" x="370" y="50" rx="2" ry="2"/><rect class="c" x="370" y="66" rx="2" ry="2"/><rect class="c" x="370" y="82" rx="2" ry="2"/><rect class="c" x="370" y="98" rx="2" ry="2"/><rect class="c" x="386" y="2" rx="2" ry="2"/><rect class="c" x="386" y="18" rx="2" ry="2"/><rect class="c" x="386" y="34" rx="2" ry="2"/><rect class="c c16" x="386" y="50" rx="2" ry="2"/><rect class="c c17" x="386" y="66" rx="2" ry="2"/><rect class="c c18" x="386" y="82" rx="2" ry="2"/><rect class="c" x="386" y="98" rx="2" ry="2"/><rect class="c" x="402" y="2" rx="2" ry="2"/><rect class="c" x="402" y="18" rx="2" ry="2"/><rect class="c" x="402" y="34" rx="2" ry="2"/><rect class="c" x="402" y="50" rx="2" ry="2"/><rect class="c c19" x="402" y="66" rx="2" ry="2"/><rect class="c" x="402" y="82" rx="2" ry="2"/><rect class="c" x="402" y="98" rx="2" ry="2"/><rect class="c" x="418" y="2" rx="2" ry="2"/><rect class="c" x="418" y="18" rx="2" ry="2"/><rect class="c" x="418" y="34" rx="2" ry="2"/><rect class="c" x="418" y="50" rx="2" ry="2"/><rect class="c" x="418" y="66" rx="2" ry="2"/><rect class="c c1a" x="418" y="82" rx="2" ry="2"/><rect class="c" x="418" y="98" rx="2" ry="2"/><rect class="c" x="434" y="2" rx="2" ry="2"/><rect class="c" x="434" y="18" rx="2" ry="2"/><rect class="c" x="434" y="34" rx="2" ry="2"/><rect class="c" x="434" y="50" rx="2" ry="2"/><rect class="c" x="434" y="66" rx="2" ry="2"/><rect class="c" x="434" y="82" rx="2" ry="2"/><rect class="c" x="434" y="98" rx="2" ry="2"/><rect class="c" x="450" y="2" rx="2" ry="2"/><rect class="c" x="450" y="18" rx="2" ry="2"/><rect class="c" x="450" y="34" rx="2" ry="2"/><rect class="c" x="450" y="50" rx="2" ry="2"/><rect class="c" x="450" y="66" rx="2" ry="2"/><rect class="c" x="450" y="82" rx="2" ry="2"/><rect class="c" x="450" y="98" rx="2" ry="2"/><rect class="c" x="466" y="2" rx="2" ry="2"/><rect class="c" x="466" y="18" rx="2" ry="2"/><rect class="c" x="466" y="34" rx="2" ry="2"/><rect class="c c1b" x="466" y="50" rx="2" ry="2"/><rect class="c" x="466" y="66" rx="2" ry="2"/><rect class="c" x="466" y="82" rx="2" ry="2"/><rect class="c" x="466" y="98" rx="2" ry="2"/><rect class="c" x="482" y="2" rx="2" ry="2"/><rect class="c" x="482" y="18" rx="2" ry="2"/><rect class="c" x="482" y="34" rx="2" ry="2"/><rect class="c c1c" x="482" y="50" rx="2" ry="2"/><rect class="c" x="482" y="66" rx="2" ry="2"/><rect class="c" x="482" y="82" rx="2" ry="2"/><rect class="c" x="482" y="98" rx="2" ry="2"/><rect class="c" x="498" y="2" rx="2" ry="2"/><rect class="c" x="498" y="18" rx="2" ry="2"/><rect class="c" x="498" y="34" rx="2" ry="2"/><rect class="c c1d" x="498" y="50" rx="2" ry="2"/><rect class="c c1e" x="498" y="66" rx="2" ry="2"/><rect class="c c1f" x="498" y="82" rx="2" ry="2"/><rect class="c" x="498" y="98" rx="2" ry="2"/><rect class="c" x="514" y="2" rx="2" ry="2"/><rect class="c c1g" x="514" y="18" rx="2" ry="2"/><rect class="c c1h" x="514" y="34" rx="2" ry="2"/><rect class="c" x="514" y="50" rx="2" ry="2"/><rect class="c" x="514" y="66" rx="2" ry="2"/><rect class="c" x="514" y="82" rx="2" ry="2"/><rect class="c" x="514" y="98" rx="2" ry="2"/><rect class="c" x="530" y="2" rx="2" ry="2"/><rect class="c c1i" x="530" y="18" rx="2" ry="2"/><rect class="c c1j" x="530" y="34" rx="2" ry="2"/><rect class="c" x="530" y="50" rx="2" ry="2"/><rect class="c" x="530" y="66" rx="2" ry="2"/><rect class="c" x="530" y="82" rx="2" ry="2"/><rect class="c" x="530" y="98" rx="2" ry="2"/><rect class="c" x="546" y="2" rx="2" ry="2"/><rect class="c" x="546" y="18" rx="2" ry="2"/><rect class="c" x="546" y="34" rx="2" ry="2"/><rect class="c c1k" x="546" y="50" rx="2" ry="2"/><rect class="c c1l" x="546" y="66" rx="2" ry="2"/><rect class="c" x="546" y="82" rx="2" ry="2"/><rect class="c" x="546" y="98" rx="2" ry="2"/><rect class="c" x="562" y="2" rx="2" ry="2"/><rect class="c c1m" x="562" y="18" rx="2" ry="2"/><rect class="c" x="562" y="34" rx="2" ry="2"/><rect class="c" x="562" y="50" rx="2" ry="2"/><rect class="c" x="562" y="66" rx="2" ry="2"/><rect class="c" x="562" y="82" rx="2" ry="2"/><rect class="c c1n" x="562" y="98" rx="2" ry="2"/><rect class="c" x="578" y="2" rx="2" ry="2"/><rect class="c" x="578" y="18" rx="2" ry="2"/><rect class="c" x="578" y="34" rx="2" ry="2"/><rect class="c" x="578" y="50" rx="2" ry="2"/><rect class="c" x="578" y="66" rx="2" ry="2"/><rect class="c" x="578" y="82" rx="2" ry="2"/><rect class="c c1o" x="578" y="98" rx="2" ry="2"/><rect class="c" x="594" y="2" rx="2" ry="2"/><rect class="c" x="594" y="18" rx="2" ry="2"/><rect class="c" x="594" y="34" rx="2" ry="2"/><rect class="c c1p" x="594" y="50" rx="2" ry="2"/><rect class="c" x="594" y="66" rx="2" ry="2"/><rect class="c" x="594" y="82" rx="2" ry="2"/><rect class="c c1q" x="594" y="98" rx="2" ry="2"/><rect class="c c1r" x="610" y="2" rx="2" ry="2"/><rect class="c" x="610" y="18" rx="2" ry="2"/><rect class="c c1s" x="610" y="34" rx="2" ry="2"/><rect class="c c1t" x="610" y="50" rx="2" ry="2"/><rect class="c" x="610" y="66" rx="2" ry="2"/><rect class="c c1u" x="610" y="82" rx="2" ry="2"/><rect class="c" x="610" y="98" rx="2" ry="2"/><rect class="c" x="626" y="2" rx="2" ry="2"/><rect class="c c1v" x="626" y="18" rx="2" ry="2"/><rect class="c c1w" x="626" y="34" rx="2" ry="2"/><rect class="c c1x" x="626" y="50" rx="2" ry="2"/><rect class="c c1y" x="626" y="66" rx="2" ry="2"/><rect class="c c1z" x="626" y="82" rx="2" ry="2"/><rect class="c" x="626" y="98" rx="2" ry="2"/><rect class="c" x="642" y="2" rx="2" ry="2"/><rect class="c c20" x="642" y="18" rx="2" ry="2"/><rect class="c c21" x="642" y="34" rx="2" ry="2"/><rect class="c c22" x="642" y="50" rx="2" ry="2"/><rect class="c c23" x="642" y="66" rx="2" ry="2"/><rect class="c c24" x="642" y="82" rx="2" ry="2"/><rect class="c" x="642" y="98" rx="2" ry="2"/><rect class="c" x="658" y="2" rx="2" ry="2"/><rect class="c c25" x="658" y="18" rx="2" ry="2"/><rect class="c c26" x="658" y="34" rx="2" ry="2"/><rect class="c c27" x="658" y="50" rx="2" ry="2"/><rect class="c" x="658" y="66" rx="2" ry="2"/><rect class="c" x="658" y="82" rx="2" ry="2"/><rect class="c" x="658" y="98" rx="2" ry="2"/><rect class="c" x="674" y="2" rx="2" ry="2"/><rect class="c" x="674" y="18" rx="2" ry="2"/><rect class="c" x="674" y="34" rx="2" ry="2"/><rect class="c" x="674" y="50" rx="2" ry="2"/><rect class="c" x="674" y="66" rx="2" ry="2"/><rect class="c" x="674" y="82" rx="2" ry="2"/><rect class="c" x="674" y="98" rx="2" ry="2"/><rect class="c" x="690" y="2" rx="2" ry="2"/><rect class="c" x="690" y="18" rx="2" ry="2"/><rect class="c" x="690" y="34" rx="2" ry="2"/><rect class="c" x="690" y="50" rx="2" ry="2"/><rect class="c" x="690" y="66" rx="2" ry="2"/><rect class="c" x="690" y="82" rx="2" ry="2"/><rect class="c" x="690" y="98" rx="2" ry="2"/><rect class="c" x="706" y="2" rx="2" ry="2"/><rect class="c" x="706" y="18" rx="2" ry="2"/><rect class="c" x="706" y="34" rx="2" ry="2"/><rect class="c" x="706" y="50" rx="2" ry="2"/><rect class="c c28" x="706" y="66" rx="2" ry="2"/><rect class="c" x="706" y="82" rx="2" ry="2"/><rect class="c" x="706" y="98" rx="2" ry="2"/><rect class="c c29" x="722" y="2" rx="2" ry="2"/><rect class="c c2a" x="722" y="18" rx="2" ry="2"/><rect class="c" x="722" y="34" rx="2" ry="2"/><rect class="c" x="722" y="50" rx="2" ry="2"/><rect class="c c2b" x="722" y="66" rx="2" ry="2"/><rect class="c" x="722" y="82" rx="2" ry="2"/><rect class="c c2c" x="722" y="98" rx="2" ry="2"/><rect class="c" x="738" y="2" rx="2" ry="2"/><rect class="c c2d" x="738" y="18" rx="2" ry="2"/><rect class="c" x="738" y="34" rx="2" ry="2"/><rect class="c c2e" x="738" y="50" rx="2" ry="2"/><rect class="c c2f" x="738" y="66" rx="2" ry="2"/><rect class="c c2g" x="738" y="82" rx="2" ry="2"/><rect class="c" x="738" y="98" rx="2" ry="2"/><rect class="c" x="754" y="2" rx="2" ry="2"/><rect class="c" x="754" y="18" rx="2" ry="2"/><rect class="c" x="754" y="34" rx="2" ry="2"/><rect class="c" x="754" y="50" rx="2" ry="2"/><rect class="c" x="754" y="66" rx="2" ry="2"/><rect class="c" x="754" y="82" rx="2" ry="2"/><rect class="c" x="754" y="98" rx="2" ry="2"/><rect class="c" x="770" y="2" rx="2" ry="2"/><rect class="c" x="770" y="18" rx="2" ry="2"/><rect class="c" x="770" y="34" rx="2" ry="2"/><rect class="c" x="770" y="50" rx="2" ry="2"/><rect class="c" x="770" y="66" rx="2" ry="2"/><rect class="c" x="770" y="82" rx="2" ry="2"/><rect class="c" x="770" y="98" rx="2" ry="2"/><rect class="c" x="786" y="2" rx="2" ry="2"/><rect class="c" x="786" y="18" rx="2" ry="2"/><rect class="c" x="786" y="34" rx="2" ry="2"/><rect class="c" x="786" y="50" rx="2" ry="2"/><rect class="c" x="786" y="66" rx="2" ry="2"/><rect class="c" x="786" y="82" rx="2" ry="2"/><rect class="c" x="786" y="98" rx="2" ry="2"/><rect class="c" x="802" y="2" rx="2" ry="2"/><rect class="c" x="802" y="18" rx="2" ry="2"/><rect class="c" x="802" y="34" rx="2" ry="2"/><rect class="c" x="802" y="50" rx="2" ry="2"/><rect class="c" x="802" y="66" rx="2" ry="2"/><rect class="c" x="802" y="82" rx="2" ry="2"/><rect class="c" x="802" y="98" rx="2" ry="2"/><rect class="c" x="818" y="2" rx="2" ry="2"/><rect class="c c2h" x="818" y="18" rx="2" ry="2"/><rect class="c" x="818" y="34" rx="2" ry="2"/><rect class="c" x="818" y="50" rx="2" ry="2"/><rect class="c" x="818" y="66" rx="2" ry="2"/><rect class="c" x="818" y="82" rx="2" ry="2"/><rect class="c" x="818" y="98" rx="2" ry="2"/><rect class="c" x="834" y="2" rx="2" ry="2"/><rect class="c" x="834" y="18" rx="2" ry="2"/><rect class="c" x="834" y="34" rx="2" ry="2"/><rect class="c" x="834" y="50" rx="2" ry="2"/><rect class="c c2i" x="834" y="66" rx="2" ry="2"/><rect class="c" x="834" y="82" rx="2" ry="2"/><rect class="c" x="834" y="98" rx="2" ry="2"/><rect class="u u0" height="12" width="662.2" x="0.0" y="144"/><rect class="u u1" height="12" width="93.8" x="661.6" y="144"/><rect class="u u2" height="12" width="56.5" x="754.8" y="144"/><rect class="u u3" height="12" width="37.9" x="810.7" y="144"/><rect class="s s0" x="0.8" y="0.8" width="14.4" height="14.4" rx="4.5" ry="4.5"/><rect class="s s1" x="1.8" y="1.8" width="12.3" height="12.3" rx="4.1" ry="4.1"/><rect class="s s2" x="2.6" y="2.6" width="10.8" height="10.8" rx="3.6" ry="3.6"/><rect class="s s3" x="3.0" y="3.0" width="9.9" height="9.9" rx="3.3" ry="3.3"/></svg>