<svg viewBox="-16 -32 880 192" width="880" height="192" xmlns="http://www.w3.org/2000/svg"><desc>Generated with https://github.com/Platane/snk</desc><style>:root{--cb:#1b1f230a;--cs:orange;--ce:#bfd6f6;--c0:#bfd6f6;--c1:#8dbdff;--c2:#64a1f4;--c3:#4b91f1;--c4:#3c7dd9}.c{shape-rendering:geometricPrecision;fill:var(--ce);stroke-width:1px;stroke:var(--cb);animation:none 24100ms linear infinite;width:12px;height:12px}@keyframes c0{95.84%{fill:var(--c4)}95.86%,100%{fill:var(--ce)}}.c.c0{fill:var(--c4);animation-name:c0}@keyframes c1{83.81%{fill:var(--c2)}83.83%,100%{fill:var(--ce)}}.c.c1{fill:var(--c2);animation-name:c1}@keyframes c2{83.39%{fill:var(--c2)}83.41%,100%{fill:var(--ce)}}.c.c2{fill:var(--c2);animation-name:c2}@keyframes c3{93.77%{fill:var(--c4)}93.79%,100%{fill:var(--ce)}}.c.c3{fill:var(--c4);animation-name:c3}@keyframes c4{94.18%{fill:var(--c4)}94.2%,100%{fill:var(--ce)}}.c.c4{fill:var(--c4);animation-name:c4}@keyframes c5{92.11%{fill:var(--c4)}92.13%,100%{fill:var(--ce)}}.c.c5{fill:var(--c4);animation-name:c5}@keyframes c6{2.89%{fill:var(--c1)}2.91%,100%{fill:var(--ce)}}.c.c6{fill:var(--c1);animation-name:c6}@keyframes c7{80.9%{fill:var(--c2)}80.92%,100%{fill:var(--ce)}}.c.c7{fill:var(--c2);animation-name:c7}@keyframes c8{85.47%{fill:var(--c3)}85.49%,100%{fill:var(--ce)}}.c.c8{fill:var(--c3);animation-name:c8}@keyframes c9{82.15%{fill:var(--c2)}82.17%,100%{fill:var(--ce)}}.c.c9{fill:var(--c2);animation-name:c9}@keyframes ca{4.55%{fill:var(--c1)}4.57%,100%{fill:var(--ce)}}.c.ca{fill:var(--c1);animation-name:ca}@keyframes cb{13.68%{fill:var(--c1)}13.7%,100%{fill:var(--ce)}}.c.cb{fill:var(--c1);animation-name:cb}@keyframes cc{5.8%{fill:var(--c1)}5.82%,100%{fill:var(--ce)}}.c.cc{fill:var(--c1);animation-name:cc}@keyframes cd{6.21%{fill:var(--c1)}6.23%,100%{fill:var(--ce)}}.c.cd{fill:var(--c1);animation-name:cd}@keyframes ce{15.34%{fill:var(--c1)}15.36%,100%{fill:var(--ce)}}.c.ce{fill:var(--c1);animation-name:ce}@keyframes cf{6.63%{fill:var(--c1)}6.65%,100%{fill:var(--ce)}}.c.cf{fill:var(--c1);animation-name:cf}@keyframes cg{12.02%{fill:var(--c1)}12.04%,100%{fill:var(--ce)}}.c.cg{fill:var(--c1);animation-name:cg}@keyframes ch{10.36%{fill:var(--c1)}10.38%,100%{fill:var(--ce)}}.c.ch{fill:var(--c1);animation-name:ch}@keyframes ci{9.95%{fill:var(--c1)}9.97%,100%{fill:var(--ce)}}.c.ci{fill:var(--c1);animation-name:ci}@keyframes cj{7.46%{fill:var(--c1)}7.48%,100%{fill:var(--ce)}}.c.cj{fill:var(--c1);animation-name:cj}@keyframes ck{11.19%{fill:var(--c1)}11.21%,100%{fill:var(--ce)}}.c.ck{fill:var(--c1);animation-name:ck}@keyframes cl{74.68%{fill:var(--c2)}74.7%,100%{fill:var(--ce)}}.c.cl{fill:var(--c2);animation-name:cl}@keyframes cm{75.09%{fill:var(--c2)}75.11%,100%{fill:var(--ce)}}.c.cm{fill:var(--c2);animation-name:cm}@keyframes cn{9.12%{fill:var(--c1)}9.14%,100%{fill:var(--ce)}}.c.cn{fill:var(--c1);animation-name:cn}@keyframes co{7.87%{fill:var(--c1)}7.89%,100%{fill:var(--ce)}}.c.co{fill:var(--c1);animation-name:co}@keyframes cp{88.79%{fill:var(--c3)}88.81%,100%{fill:var(--ce)}}.c.cp{fill:var(--c3);animation-name:cp}@keyframes cq{74.26%{fill:var(--c2)}74.28%,100%{fill:var(--ce)}}.c.cq{fill:var(--c2);animation-name:cq}@keyframes cr{73.85%{fill:var(--c2)}73.87%,100%{fill:var(--ce)}}.c.cr{fill:var(--c2);animation-name:cr}@keyframes cs{8.7%{fill:var(--c1)}8.72%,100%{fill:var(--ce)}}.c.cs{fill:var(--c1);animation-name:cs}@keyframes ct{8.29%{fill:var(--c1)}8.31%,100%{fill:var(--ce)}}.c.ct{fill:var(--c1);animation-name:ct}@keyframes cu{76.75%{fill:var(--c2)}76.77%,100%{fill:var(--ce)}}.c.cu{fill:var(--c2);animation-name:cu}@keyframes cv{18.25%{fill:var(--c1)}18.27%,100%{fill:var(--ce)}}.c.cv{fill:var(--c1);animation-name:cv}@keyframes cw{17.83%{fill:var(--c1)}17.85%,100%{fill:var(--ce)}}.c.cw{fill:var(--c1);animation-name:cw}@keyframes cx{71.77%{fill:var(--c2)}71.79%,100%{fill:var(--ce)}}.c.cx{fill:var(--c2);animation-name:cx}@keyframes cy{21.57%{fill:var(--c1)}21.59%,100%{fill:var(--ce)}}.c.cy{fill:var(--c1);animation-name:cy}@keyframes cz{20.32%{fill:var(--c1)}20.34%,100%{fill:var(--ce)}}.c.cz{fill:var(--c1);animation-name:cz}@keyframes c10{24.06%{fill:var(--c1)}24.08%,100%{fill:var(--ce)}}.c.c10{fill:var(--c1);animation-name:c10}@keyframes c11{25.72%{fill:var(--c1)}25.74%,100%{fill:var(--ce)}}.c.c11{fill:var(--c1);animation-name:c11}@keyframes c12{20.74%{fill:var(--c1)}20.76%,100%{fill:var(--ce)}}.c.c12{fill:var(--c1);animation-name:c12}@keyframes c13{23.23%{fill:var(--c1)}23.25%,100%{fill:var(--ce)}}.c.c13{fill:var(--c1);animation-name:c13}@keyframes c14{23.64%{fill:var(--c1)}23.66%,100%{fill:var(--ce)}}.c.c14{fill:var(--c1);animation-name:c14}@keyframes c15{24.89%{fill:var(--c1)}24.91%,100%{fill:var(--ce)}}.c.c15{fill:var(--c1);animation-name:c15}@keyframes c16{31.11%{fill:var(--c1)}31.13%,100%{fill:var(--ce)}}.c.c16{fill:var(--c1);animation-name:c16}@keyframes c17{29.45%{fill:var(--c1)}29.47%,100%{fill:var(--ce)}}.c.c17{fill:var(--c1);animation-name:c17}@keyframes c18{45.22%{fill:var(--c1)}45.24%,100%{fill:var(--ce)}}.c.c18{fill:var(--c1);animation-name:c18}@keyframes c19{34.84%{fill:var(--c1)}34.86%,100%{fill:var(--ce)}}.c.c19{fill:var(--c1);animation-name:c19}@keyframes c1a{35.67%{fill:var(--c1)}35.69%,100%{fill:var(--ce)}}.c.c1a{fill:var(--c1);animation-name:c1a}@keyframes c1b{44.39%{fill:var(--c1)}44.41%,100%{fill:var(--ce)}}.c.c1b{fill:var(--c1);animation-name:c1b}@keyframes c1c{36.92%{fill:var(--c1)}36.94%,100%{fill:var(--ce)}}.c.c1c{fill:var(--c1);animation-name:c1c}@keyframes c1d{63.48%{fill:var(--c2)}63.5%,100%{fill:var(--ce)}}.c.c1d{fill:var(--c2);animation-name:c1d}@keyframes c1e{42.31%{fill:var(--c1)}42.33%,100%{fill:var(--ce)}}.c.c1e{fill:var(--c1);animation-name:c1e}@keyframes c1f{62.65%{fill:var(--c2)}62.67%,100%{fill:var(--ce)}}.c.c1f{fill:var(--c2);animation-name:c1f}@keyframes c1g{63.06%{fill:var(--c2)}63.08%,100%{fill:var(--ce)}}.c.c1g{fill:var(--c2);animation-name:c1g}@keyframes c1h{41.9%{fill:var(--c1)}41.92%,100%{fill:var(--ce)}}.c.c1h{fill:var(--c1);animation-name:c1h}@keyframes c1i{38.16%{fill:var(--c1)}38.18%,100%{fill:var(--ce)}}.c.c1i{fill:var(--c1);animation-name:c1i}@keyframes c1j{41.07%{fill:var(--c1)}41.09%,100%{fill:var(--ce)}}.c.c1j{fill:var(--c1);animation-name:c1j}@keyframes c1k{38.58%{fill:var(--c1)}38.6%,100%{fill:var(--ce)}}.c.c1k{fill:var(--c1);animation-name:c1k}@keyframes c1l{55.59%{fill:var(--c1)}55.61%,100%{fill:var(--ce)}}.c.c1l{fill:var(--c1);animation-name:c1l}@keyframes c1m{54.76%{fill:var(--c1)}54.78%,100%{fill:var(--ce)}}.c.c1m{fill:var(--c1);animation-name:c1m}.u{transform-origin:0 0;transform:scale(0,1);animation:none linear 24100ms infinite}@keyframes u0{2.89%{transform:scale(0.000,1)}2.91%,4.55%{transform:scale(0.025,1)}4.57%,5.8%{transform:scale(0.050,1)}5.82%,6.21%{transform:scale(0.075,1)}6.23%,6.63%{transform:scale(0.100,1)}6.65%,7.46%{transform:scale(0.125,1)}7.48%,7.87%{transform:scale(0.150,1)}7.89%,8.29%{transform:scale(0.175,1)}8.31%,8.7%{transform:scale(0.200,1)}8.72%,9.12%{transform:scale(0.225,1)}9.14%,9.95%{transform:scale(0.250,1)}9.97%,10.36%{transform:scale(0.275,1)}10.38%,11.19%{transform:scale(0.300,1)}11.21%,12.02%{transform:scale(0.325,1)}12.04%,13.68%{transform:scale(0.350,1)}13.7%,15.34%{transform:scale(0.375,1)}15.36%,17.83%{transform:scale(0.400,1)}17.85%,18.25%{transform:scale(0.425,1)}18.27%,20.32%{transform:scale(0.450,1)}20.34%,20.74%{transform:scale(0.475,1)}20.76%,21.57%{transform:scale(0.500,1)}21.59%,23.23%{transform:scale(0.525,1)}23.25%,23.64%{transform:scale(0.550,1)}23.66%,24.06%{transform:scale(0.575,1)}24.08%,24.89%{transform:scale(0.600,1)}24.91%,25.72%{transform:scale(0.625,1)}25.74%,29.45%{transform:scale(0.650,1)}29.47%,31.11%{transform:scale(0.675,1)}31.13%,34.84%{transform:scale(0.700,1)}34.86%,35.67%{transform:scale(0.725,1)}35.69%,36.92%{transform:scale(0.750,1)}36.94%,38.16%{transform:scale(0.775,1)}38.18%,38.58%{transform:scale(0.800,1)}38.6%,41.07%{transform:scale(0.825,1)}41.09%,41.9%{transform:scale(0.850,1)}41.92%,42.31%{transform:scale(0.875,1)}42.33%,44.39%{transform:scale(0.900,1)}44.41%,45.22%{transform:scale(0.925,1)}45.24%,54.76%{transform:scale(0.950,1)}54.78%,55.59%{transform:scale(0.975,1)}55.61%,100%{transform:scale(1.000,1)}}.u.u0{fill:var(--c1);animation-name:u0;transform-origin:0.0px 0}@keyframes u1{62.65%{transform:scale(0.000,1)}62.67%,63.06%{transform:scale(0.077,1)}63.08%,63.48%{transform:scale(0.154,1)}63.5%,71.77%{transform:scale(0.231,1)}71.79%,73.85%{transform:scale(0.308,1)}73.87%,74.26%{transform:scale(0.385,1)}74.28%,74.68%{transform:scale(0.462,1)}74.7%,75.09%{transform:scale(0.538,1)}75.11%,76.75%{transform:scale(0.615,1)}76.77%,80.9%{transform:scale(0.692,1)}80.92%,82.15%{transform:scale(0.769,1)}82.17%,83.39%{transform:scale(0.846,1)}83.41%,83.81%{transform:scale(0.923,1)}83.83%,100%{transform:scale(1.000,1)}}.u.u1{fill:var(--c2);animation-name:u1;transform-origin:574.9px 0}@keyframes u2{85.47%{transform:scale(0.000,1)}85.49%,88.79%{transform:scale(0.500,1)}88.81%,100%{transform:scale(1.000,1)}}.u.u2{fill:var(--c3);animation-name:u2;transform-origin:761.8px 0}@keyframes u3{92.11%{transform:scale(0.000,1)}92.13%,93.77%{transform:scale(0.250,1)}93.79%,94.18%{transform:scale(0.500,1)}94.2%,95.84%{transform:scale(0.750,1)}95.86%,100%{transform:scale(1.000,1)}}.u.u3{fill:var(--c4);animation-name:u3;transform-origin:790.5px 0}.s{shape-rendering:geometricPrecision;fill:var(--cs);animation:none linear 24100ms infinite}@keyframes s0{0%,99.59%{transform:translate(0px,-16px)}0.41%{transform:translate(0px,0px)}1.66%,97.93%{transform:translate(48px,0px)}2.49%{transform:translate(48px,32px)}2.9%{transform:translate(64px,32px)}3.32%{transform:translate(64px,48px)}3.73%{transform:translate(80px,48px)}4.15%{transform:translate(80px,64px)}4.98%{transform:translate(112px,64px)}5.81%{transform:translate(112px,96px)}7.05%{transform:translate(160px,96px)}7.47%{transform:translate(160px,80px)}8.3%{transform:translate(192px,80px)}8.71%{transform:translate(192px,64px)}9.54%,16.18%{transform:translate(160px,64px)}10.79%{transform:translate(160px,16px)}11.2%{transform:translate(176px,16px)}11.62%{transform:translate(176px,0px)}13.28%{transform:translate(112px,0px)}13.69%{transform:translate(112px,16px)}14.52%{transform:translate(144px,16px)}15.35%{transform:translate(144px,48px)}15.77%{transform:translate(160px,48px)}17.43%{transform:translate(208px,64px)}18.26%{transform:translate(208px,32px)}19.92%{transform:translate(272px,32px)}20.33%,21.99%{transform:translate(272px,16px)}20.75%,22.41%{transform:translate(288px,16px)}21.16%{transform:translate(288px,0px)}21.58%{transform:translate(272px,0px)}23.65%{transform:translate(288px,64px)}24.07%{transform:translate(272px,64px)}24.48%,26.14%{transform:translate(272px,80px)}24.9%{transform:translate(288px,80px)}25.31%{transform:translate(288px,96px)}25.73%{transform:translate(272px,96px)}29.05%{transform:translate(384px,80px)}30.71%{transform:translate(384px,16px)}31.12%{transform:translate(368px,16px)}31.54%{transform:translate(368px,32px)}35.27%{transform:translate(512px,32px)}35.68%{transform:translate(512px,16px)}37.76%,39.42%{transform:translate(592px,16px)}38.17%{transform:translate(592px,0px)}38.59%{transform:translate(608px,0px)}39%{transform:translate(608px,16px)}41.49%{transform:translate(592px,96px)}42.74%{transform:translate(544px,96px)}43.57%{transform:translate(544px,64px)}45.23%{transform:translate(480px,64px)}45.64%{transform:translate(480px,48px)}54.77%{transform:translate(832px,48px)}55.19%{transform:translate(832px,32px)}61.83%{transform:translate(576px,32px)}63.07%{transform:translate(576px,80px)}63.49%{transform:translate(560px,80px)}63.9%{transform:translate(560px,64px)}71.78%{transform:translate(256px,64px)}72.2%{transform:translate(256px,48px)}73.86%{transform:translate(192px,48px)}74.27%,88.38%{transform:translate(192px,32px)}74.69%{transform:translate(176px,32px)}75.1%{transform:translate(176px,48px)}75.93%{transform:translate(208px,48px)}77.18%{transform:translate(208px,0px)}80.5%{transform:translate(80px,0px)}80.91%{transform:translate(80px,16px)}81.33%{transform:translate(96px,16px)}82.16%{transform:translate(96px,48px)}83.82%,95.44%{transform:translate(32px,48px)}84.23%{transform:translate(32px,32px)}88.8%{transform:translate(192px,16px)}92.53%{transform:translate(48px,16px)}94.19%{transform:translate(48px,80px)}94.61%{transform:translate(32px,80px)}95.85%{transform:translate(16px,48px)}97.1%{transform:translate(16px,0px)}98.34%{transform:translate(48px,-16px)}}.s.s0{transform:translate(0px,-16px);animation-name:s0}@keyframes s1{0%,99.59%{transform:translate(16px,-16px)}0.41%{transform:translate(0px,-16px)}0.83%{transform:translate(0px,0px)}2.07%,98.34%{transform:translate(48px,0px)}2.9%{transform:translate(48px,32px)}3.32%{transform:translate(64px,32px)}3.73%{transform:translate(64px,48px)}4.15%{transform:translate(80px,48px)}4.56%{transform:translate(80px,64px)}5.39%{transform:translate(112px,64px)}6.22%{transform:translate(112px,96px)}7.47%{transform:translate(160px,96px)}7.88%{transform:translate(160px,80px)}8.71%{transform:translate(192px,80px)}9.13%{transform:translate(192px,64px)}9.96%,16.6%{transform:translate(160px,64px)}11.2%{transform:translate(160px,16px)}11.62%{transform:translate(176px,16px)}12.03%{transform:translate(176px,0px)}13.69%{transform:translate(112px,0px)}14.11%{transform:translate(112px,16px)}14.94%{transform:translate(144px,16px)}15.77%{transform:translate(144px,48px)}16.18%{transform:translate(160px,48px)}17.84%{transform:translate(208px,64px)}18.67%{transform:translate(208px,32px)}20.33%{transform:translate(272px,32px)}20.75%,22.41%{transform:translate(272px,16px)}21.16%,22.82%{transform:translate(288px,16px)}21.58%{transform:translate(288px,0px)}21.99%{transform:translate(272px,0px)}24.07%{transform:translate(288px,64px)}24.48%{transform:translate(272px,64px)}24.9%,26.56%{transform:translate(272px,80px)}25.31%{transform:translate(288px,80px)}25.73%{transform:translate(288px,96px)}26.14%{transform:translate(272px,96px)}29.46%{transform:translate(384px,80px)}31.12%{transform:translate(384px,16px)}31.54%{transform:translate(368px,16px)}31.95%{transform:translate(368px,32px)}35.68%{transform:translate(512px,32px)}36.1%{transform:translate(512px,16px)}38.17%,39.83%{transform:translate(592px,16px)}38.59%{transform:translate(592px,0px)}39%{transform:translate(608px,0px)}39.42%{transform:translate(608px,16px)}41.91%{transform:translate(592px,96px)}43.15%{transform:translate(544px,96px)}43.98%{transform:translate(544px,64px)}45.64%{transform:translate(480px,64px)}46.06%{transform:translate(480px,48px)}55.19%{transform:translate(832px,48px)}55.6%{transform:translate(832px,32px)}62.24%{transform:translate(576px,32px)}63.49%{transform:translate(576px,80px)}63.9%{transform:translate(560px,80px)}64.32%{transform:translate(560px,64px)}72.2%{transform:translate(256px,64px)}72.61%{transform:translate(256px,48px)}74.27%{transform:translate(192px,48px)}74.69%,88.8%{transform:translate(192px,32px)}75.1%{transform:translate(176px,32px)}75.52%{transform:translate(176px,48px)}76.35%{transform:translate(208px,48px)}77.59%{transform:translate(208px,0px)}80.91%{transform:translate(80px,0px)}81.33%{transform:translate(80px,16px)}81.74%{transform:translate(96px,16px)}82.57%{transform:translate(96px,48px)}84.23%,95.85%{transform:translate(32px,48px)}84.65%{transform:translate(32px,32px)}89.21%{transform:translate(192px,16px)}92.95%{transform:translate(48px,16px)}94.61%{transform:translate(48px,80px)}95.02%{transform:translate(32px,80px)}96.27%{transform:translate(16px,48px)}97.51%{transform:translate(16px,0px)}98.76%{transform:translate(48px,-16px)}}.s.s1{transform:translate(16px,-16px);animation-name:s1}@keyframes s2{0%,99.59%{transform:translate(32px,-16px)}0.83%{transform:translate(0px,-16px)}1.24%{transform:translate(0px,0px)}2.49%,98.76%{transform:translate(48px,0px)}3.32%{transform:translate(48px,32px)}3.73%{transform:translate(64px,32px)}4.15%{transform:translate(64px,48px)}4.56%{transform:translate(80px,48px)}4.98%{transform:translate(80px,64px)}5.81%{transform:translate(112px,64px)}6.64%{transform:translate(112px,96px)}7.88%{transform:translate(160px,96px)}8.3%{transform:translate(160px,80px)}9.13%{transform:translate(192px,80px)}9.54%{transform:translate(192px,64px)}10.37%,17.01%{transform:translate(160px,64px)}11.62%{transform:translate(160px,16px)}12.03%{transform:translate(176px,16px)}12.45%{transform:translate(176px,0px)}14.11%{transform:translate(112px,0px)}14.52%{transform:translate(112px,16px)}15.35%{transform:translate(144px,16px)}16.18%{transform:translate(144px,48px)}16.6%{transform:translate(160px,48px)}18.26%{transform:translate(208px,64px)}19.09%{transform:translate(208px,32px)}20.75%{transform:translate(272px,32px)}21.16%,22.82%{transform:translate(272px,16px)}21.58%,23.24%{transform:translate(288px,16px)}21.99%{transform:translate(288px,0px)}22.41%{transform:translate(272px,0px)}24.48%{transform:translate(288px,64px)}24.9%{transform:translate(272px,64px)}25.31%,26.97%{transform:translate(272px,80px)}25.73%{transform:translate(288px,80px)}26.14%{transform:translate(288px,96px)}26.56%{transform:translate(272px,96px)}29.88%{transform:translate(384px,80px)}31.54%{transform:translate(384px,16px)}31.95%{transform:translate(368px,16px)}32.37%{transform:translate(368px,32px)}36.1%{transform:translate(512px,32px)}36.51%{transform:translate(512px,16px)}38.59%,40.25%{transform:translate(592px,16px)}39%{transform:translate(592px,0px)}39.42%{transform:translate(608px,0px)}39.83%{transform:translate(608px,16px)}42.32%{transform:translate(592px,96px)}43.57%{transform:translate(544px,96px)}44.4%{transform:translate(544px,64px)}46.06%{transform:translate(480px,64px)}46.47%{transform:translate(480px,48px)}55.6%{transform:translate(832px,48px)}56.02%{transform:translate(832px,32px)}62.66%{transform:translate(576px,32px)}63.9%{transform:translate(576px,80px)}64.32%{transform:translate(560px,80px)}64.73%{transform:translate(560px,64px)}72.61%{transform:translate(256px,64px)}73.03%{transform:translate(256px,48px)}74.69%{transform:translate(192px,48px)}75.1%,89.21%{transform:translate(192px,32px)}75.52%{transform:translate(176px,32px)}75.93%{transform:translate(176px,48px)}76.76%{transform:translate(208px,48px)}78.01%{transform:translate(208px,0px)}81.33%{transform:translate(80px,0px)}81.74%{transform:translate(80px,16px)}82.16%{transform:translate(96px,16px)}82.99%{transform:translate(96px,48px)}84.65%,96.27%{transform:translate(32px,48px)}85.06%{transform:translate(32px,32px)}89.63%{transform:translate(192px,16px)}93.36%{transform:translate(48px,16px)}95.02%{transform:translate(48px,80px)}95.44%{transform:translate(32px,80px)}96.68%{transform:translate(16px,48px)}97.93%{transform:translate(16px,0px)}99.17%{transform:translate(48px,-16px)}}.s.s2{transform:translate(32px,-16px);animation-name:s2}@keyframes s3{0%,99.59%{transform:translate(48px,-16px)}1.24%{transform:translate(0px,-16px)}1.66%{transform:translate(0px,0px)}2.9%,99.17%{transform:translate(48px,0px)}3.73%{transform:translate(48px,32px)}4.15%{transform:translate(64px,32px)}4.56%{transform:translate(64px,48px)}4.98%{transform:translate(80px,48px)}5.39%{transform:translate(80px,64px)}6.22%{transform:translate(112px,64px)}7.05%{transform:translate(112px,96px)}8.3%{transform:translate(160px,96px)}8.71%{transform:translate(160px,80px)}9.54%{transform:translate(192px,80px)}9.96%{transform:translate(192px,64px)}10.79%,17.43%{transform:translate(160px,64px)}12.03%{transform:translate(160px,16px)}12.45%{transform:translate(176px,16px)}12.86%{transform:translate(176px,0px)}14.52%{transform:translate(112px,0px)}14.94%{transform:translate(112px,16px)}15.77%{transform:translate(144px,16px)}16.6%{transform:translate(144px,48px)}17.01%{transform:translate(160px,48px)}18.67%{transform:translate(208px,64px)}19.5%{transform:translate(208px,32px)}21.16%{transform:translate(272px,32px)}21.58%,23.24%{transform:translate(272px,16px)}21.99%,23.65%{transform:translate(288px,16px)}22.41%{transform:translate(288px,0px)}22.82%{transform:translate(272px,0px)}24.9%{transform:translate(288px,64px)}25.31%{transform:translate(272px,64px)}25.73%,27.39%{transform:translate(272px,80px)}26.14%{transform:translate(288px,80px)}26.56%{transform:translate(288px,96px)}26.97%{transform:translate(272px,96px)}30.29%{transform:translate(384px,80px)}31.95%{transform:translate(384px,16px)}32.37%{transform:translate(368px,16px)}32.78%{transform:translate(368px,32px)}36.51%{transform:translate(512px,32px)}36.93%{transform:translate(512px,16px)}39%,40.66%{transform:translate(592px,16px)}39.42%{transform:translate(592px,0px)}39.83%{transform:translate(608px,0px)}40.25%{transform:translate(608px,16px)}42.74%{transform:translate(592px,96px)}43.98%{transform:translate(544px,96px)}44.81%{transform:translate(544px,64px)}46.47%{transform:translate(480px,64px)}46.89%{transform:translate(480px,48px)}56.02%{transform:translate(832px,48px)}56.43%{transform:translate(832px,32px)}63.07%{transform:translate(576px,32px)}64.32%{transform:translate(576px,80px)}64.73%{transform:translate(560px,80px)}65.15%{transform:translate(560px,64px)}73.03%{transform:translate(256px,64px)}73.44%{transform:translate(256px,48px)}75.1%{transform:translate(192px,48px)}75.52%,89.63%{transform:translate(192px,32px)}75.93%{transform:translate(176px,32px)}76.35%{transform:translate(176px,48px)}77.18%{transform:translate(208px,48px)}78.42%{transform:translate(208px,0px)}81.74%{transform:translate(80px,0px)}82.16%{transform:translate(80px,16px)}82.57%{transform:translate(96px,16px)}83.4%{transform:translate(96px,48px)}85.06%,96.68%{transform:translate(32px,48px)}85.48%{transform:translate(32px,32px)}90.04%{transform:translate(192px,16px)}93.78%{transform:translate(48px,16px)}95.44%{transform:translate(48px,80px)}95.85%{transform:translate(32px,80px)}97.1%{transform:translate(16px,48px)}98.34%{transform:translate(16px,0px)}}.s.s3{transform:translate(48px,-16px);animation-name:s3}</style><rect class="c" x="2" y="2" rx="2" ry="2"/><rect class="c" x="2" y="18" rx="2" ry="2"/><rect class="c" x="2" y="34" rx="2" ry="2"/><rect class="c" x="2" y="50" rx="2" ry="2"/><rect class="c" x="2" y="66" rx="2" ry="2"/><rect class="c" x="2" y="82" rx="2" ry="2"/><rect class="c" x="2" y="98" rx="2" ry="2"/><rect class="c" x="18" y="2" rx="2" ry="2"/><rect class="c" x="18" y="18" rx="2" ry="2"/><rect class="c" x="18" y="34" rx="2" ry="2"/><rect class="c c0" x="18" y="50" rx="2" ry="2"/><rect class="c" x="18" y="66" rx="2" ry="2"/><rect class="c" x="18" y="82" rx="2" ry="2"/><rect class="c" x="18" y="98" rx="2" ry="2"/><rect class="c" x="34" y="2" rx="2" ry="2"/><rect class="c" x="34" y="18" rx="2" ry="2"/><rect class="c" x="34" y="34" rx="2" ry="2"/><rect class="c c1" x="34" y="50" rx="2" ry="2"/><rect class="c" x="34" y="66" rx="2" ry="2"/><rect class="c" x="34" y="82" rx="2" ry="2"/><rect class="c" x="34" y="98" rx="2" ry="2"/><rect class="c" x="50" y="2" rx="2" ry="2"/><rect class="c" x="50" y="18" rx="2" ry="2"/><rect class="c" x="50" y="34" rx="2" ry="2"/><rect class="c c2" x="50" y="50" rx="2" ry="2"/><rect class="c c3" x="50" y="66" rx="2" ry="2"/><rect class="c c4" x="50" y="82" rx="2" ry="2"/><rect class="c" x="50" y="98" rx="2" ry="2"/><rect class="c" x="66" y="2" rx="2" ry="2"/><rect class="c c5" x="66" y="18" rx="2" ry="2"/><rect class="c c6" x="66" y="34" rx="2" ry="2"/><rect class="c" x="66" y="50" rx="2" ry="2"/><rect class="c" x="66" y="66" rx="2" ry="2"/><rect class="c" x="66" y="82" rx="2" ry="2"/><rect class="c" x="66" y="98" rx="2" ry="2"/><rect class="c" x="82" y="2" rx="2" ry="2"/><rect class="c c7" x="82" y="18" rx="2" ry="2"/><rect class="c c8" x="82" y="34" rx="2" ry="2"/><rect class="c" x="82" y="50" rx="2" ry="2"/><rect class="c" x="82" y="66" rx="2" ry="2"/><rect class="c" x="82" y="82" rx="2" ry="2"/><rect class="c" x="82" y="98" rx="2" ry="2"/><rect class="c" x="98" y="2" rx="2" ry="2"/><rect class="c" x="98" y="18" rx="2" ry="2"/><rect class="c" x="98" y="34" rx="2" ry="2"/><rect class="c c9" x="98" y="50" rx="2" ry="2"/><rect class="c ca" x="98" y="66" rx="2" ry="2"/><rect class="c" x="98" y="82" rx="2" ry="2"/><rect class="c" x="98" y="98" rx="2" ry="2"/><rect class="c" x="114" y="2" rx="2" ry="2"/><rect class="c cb" x="114" y="18" rx="2" ry="2"/><rect class="c" x="114" y="34" rx="2" ry="2"/><rect class="c" x="114" y="50" rx="2" ry="2"/><rect class="c" x="114" y="66" rx="2" ry="2"/><rect class="c" x="114" y="82" rx="2" ry="2"/><rect class="c cc" x="114" y="98" rx="2" ry="2"/><rect class="c" x="130" y="2" rx="2" ry="2"/><rect class="c" x="130" y="18" rx="2" ry="2"/><rect class="c" x="130" y="34" rx="2" ry="2"/><rect class="c" x="130" y="50" rx="2" ry="2"/><rect class="c" x="130" y="66" rx="2" ry="2"/><rect class="c" x="130" y="82" rx="2" ry="2"/><rect class="c cd" x="130" y="98" rx="2" ry="2"/><rect class="c" x="146" y="2" rx="2" ry="2"/><rect class="c" x="146" y="18" rx="2" ry="2"/><rect class="c" x="146" y="34" rx="2" ry="2"/><rect class="c ce" x="146" y="50" rx="2" ry="2"/><rect class="c" x="146" y="66" rx="2" ry="2"/><rect class="c" x="146" y="82" rx="2" ry="2"/><rect class="c cf" x="146" y="98" rx="2" ry="2"/><rect class="c cg" x="162" y="2" rx="2" ry="2"/><rect class="c" x="162" y="18" rx="2" ry="2"/><rect class="c ch" x="162" y="34" rx="2" ry="2"/><rect class="c ci" x="162" y="50" rx="2" ry="2"/><rect class="c" x="162" y="66" rx="2" ry="2"/><rect class="c cj" x="162" y="82" rx="2" ry="2"/><rect class="c" x="162" y="98" rx="2" ry="2"/><rect class="c" x="178" y="2" rx="2" ry="2"/><rect class="c ck" x="178" y="18" rx="2" ry="2"/><rect class="c cl" x="178" y="34" rx="2" ry="2"/><rect class="c cm" x="178" y="50" rx="2" ry="2"/><rect class="c cn" x="178" y="66" rx="2" ry="2"/><rect class="c co" x="178" y="82" rx="2" ry="2"/><rect class="c" x="178" y="98" rx="2" ry="2"/><rect class="c" x="194" y="2" rx="2" ry="2"/><rect class="c cp" x="194" y="18" rx="2" ry="2"/><rect class="c cq" x="194" y="34" rx="2" ry="2"/><rect class="c cr" x="194" y="50" rx="2" ry="2"/><rect class="c cs" x="194" y="66" rx="2" ry="2"/><rect class="c ct" x="194" y="82" rx="2" ry="2"/><rect class="c" x="194" y="98" rx="2" ry="2"/><rect class="c" x="210" y="2" rx="2" ry="2"/><rect class="c cu" x="210" y="18" rx="2" ry="2"/><rect class="c cv" x="210" y="34" rx="2" ry="2"/><rect class="c cw" x="210" y="50" rx="2" ry="2"/><rect class="c" x="210" y="66" rx="2" ry="2"/><rect class="c" x="210" y="82" rx="2" ry="2"/><rect class="c" x="210" y="98" rx="2" ry="2"/><rect class="c" x="226" y="2" rx="2" ry="2"/><rect class="c" x="226" y="18" rx="2" ry="2"/><rect class="c" x="226" y="34" rx="2" ry="2"/><rect class="c" x="226" y="50" rx="2" ry="2"/><rect class="c" x="226" y="66" rx="2" ry="2"/><rect class="c" x="226" y="82" rx="2" ry="2"/><rect class="c" x="226" y="98" rx="2" ry="2"/><rect class="c" x="242" y="2" rx="2" ry="2"/><rect class="c" x="242" y="18" rx="2" ry="2"/><rect class="c" x="242" y="34" rx="2" ry="2"/><rect class="c" x="242" y="50" rx="2" ry="2"/><rect class="c" x="242" y="66" rx="2" ry="2"/><rect class="c" x="242" y="82" rx="2" ry="2"/><rect class="c" x="242" y="98" rx="2" ry="2"/><rect class="c" x="258" y="2" rx="2" ry="2"/><rect class="c" x="258" y="18" rx="2" ry="2"/><rect class="c" x="258" y="34" rx="2" ry="2"/><rect class="c" x="258" y="50" rx="2" ry="2"/><rect class="c cx" x="258" y="66" rx="2" ry="2"/><rect class="c" x="258" y="82" rx="2" ry="2"/><rect class="c" x="258" y="98" rx="2" ry="2"/><rect class="c cy" x="274" y="2" rx="2" ry="2"/><rect class="c cz" x="274" y="18" rx="2" ry="2"/><rect class="c" x="274" y="34" rx="2" ry="2"/><rect class="c" x="274" y="50" rx="2" ry="2"/><rect class="c c10" x="274" y="66" rx="2" ry="2"/><rect class="c" x="274" y="82" rx="2" ry="2"/><rect class="c c11" x="274" y="98" rx="2" ry="2"/><rect class="c" x="290" y="2" rx="2" ry="2"/><rect class="c c12" x="290" y="18" rx="2" ry="2"/><rect class="c" x="290" y="34" rx="2" ry="2"/><rect class="c c13" x="290" y="50" rx="2" ry="2"/><rect class="c c14" x="290" y="66" rx="2" ry="2"/><rect class="c c15" x="290" y="82" rx="2" ry="2"/><rect class="c" x="290" y="98" rx="2" ry="2"/><rect class="c" x="306" y="2" rx="2" ry="2"/><rect class="c" x="306" y="18" rx="2" ry="2"/><rect class="c" x="306" y="34" rx="2" ry="2"/><rect class="c" x="306" y="50" rx="2" ry="2"/><rect class="c" x="306" y="66" rx="2" ry="2"/><rect class="c" x="306" y="82" rx="2" ry="2"/><rect class="c" x="306" y="98" rx="2" ry="2"/><rect class="c" x="322" y="2" rx="2" ry="2"/><rect class="c" x="322" y="18" rx="2" ry="2"/><rect class="c" x="322" y="34" rx="2" ry="2"/><rect class="c" x="322" y="50" rx="2" ry="2"/><rect class="c" x="322" y="66" rx="2" ry="2"/><rect class="c" x="322" y="82" rx="2" ry="2"/><rect class="c" x="322" y="98" rx="2" ry="2"/><rect class="c" x="338" y="2" rx="2" ry="2"/><rect class="c" x="338" y="18" rx="2" ry="2"/><rect class="c" x="338" y="34" rx="2" ry="2"/><rect class="c" x="338" y="50" rx="2" ry="2"/><rect class="c" x="338" y="66" rx="2" ry="2"/><rect class="c" x="338" y="82" rx="2" ry="2"/><rect class="c" x="338" y="98" rx="2" ry="2"/><rect class="c" x="354" y="2" rx="2" ry="2"/><rect class="c" x="354" y="18" rx="2" ry="2"/><rect class="c" x="354" y="34" rx="2" ry="2"/><rect class="c" x="354" y="50" rx="2" ry="2"/><rect class="c" x="354" y="66" rx="2" ry="2"/><rect class="c" x="354" y="82" rx="2" ry="2"/><rect class="c" x="354" y="98" rx="2" ry="2"/><rect class="c" x="370" y="2" rx="2" ry="2"/><rect class="c c16" x="370" y="18" rx="2" ry="2"/><rect class="c" x="370" y="34" rx="2" ry="2"/><rect class="c" x="370" y="50" rx="2" ry="2"/><rect class="c" x="370" y="66" rx="2" ry="2"/><rect class="c" x="370" y="82" rx="2" ry="2"/><rect class="c" x="370" y="98" rx="2" ry="2"/><rect class="c" x="386" y="2" rx="2" ry="2"/><rect class="c" x="386" y="18" rx="2" ry="2"/><rect class="c" x="386" y="34" rx="2" ry="2"/><rect class="c" x="386" y="50" rx="2" ry="2"/><rect class="c c17" x="386" y="66" rx="2" ry="2"/><rect class="c" x="386" y="82" rx="2" ry="2"/><rect class="c" x="386" y="98" rx="2" ry="2"/><rect class="c" x="402" y="2" rx="2" ry="2"/><rect class="c" x="402" y="18" rx="2" ry="2"/><rect class="c" x="402" y="34" rx="2" ry="2"/><rect class="c" x="402" y="50" rx="2" ry="2"/><rect class="c" x="402" y="66" rx="2" ry="2"/><rect class="c" x="402" y="82" rx="2" ry="2"/><rect class="c" x="402" y="98" rx="2" ry="2"/><rect class="c" x="418" y="2" rx="2" ry="2"/><rect class="c" x="418" y="18" rx="2" ry="2"/><rect class="c" x="418" y="34" rx="2" ry="2"/><rect class="c" x="418" y="50" rx="2" ry="2"/><rect class="c" x="418" y="66" rx="2" ry="2"/><rect class="c" x="418" y="82" rx="2" ry="2"/><rect class="c" x="418" y="98" rx="2" ry="2"/><rect class="c" x="434" y="2" rx="2" ry="2"/><rect class="c" x="434" y="18" rx="2" ry="2"/><rect class="c" x="434" y="34" rx="2" ry="2"/><rect class="c" x="434" y="50" rx="2" ry="2"/><rect class="c" x="434" y="66" rx="2" ry="2"/><rect class="c" x="434" y="82" rx="2" ry="2"/><rect class="c" x="434" y="98" rx="2" ry="2"/><rect class="c" x="450" y="2" rx="2" ry="2"/><rect class="c" x="450" y="18" rx="2" ry="2"/><rect class="c" x="450" y="34" rx="2" ry="2"/><rect class="c" x="450" y="50" rx="2" ry="2"/><rect class="c" x="450" y="66" rx="2" ry="2"/><rect class="c" x="450" y="82" rx="2" ry="2"/><rect class="c" x="450" y="98" rx="2" ry="2"/><rect class="c" x="466" y="2" rx="2" ry="2"/><rect class="c" x="466" y="18" rx="2" ry="2"/><rect class="c" x="466" y="34" rx="2" ry="2"/><rect class="c" x="466" y="50" rx="2" ry="2"/><rect class="c" x="466" y="66" rx="2" ry="2"/><rect class="c" x="466" y="82" rx="2" ry="2"/><rect class="c" x="466" y="98" rx="2" ry="2"/><rect class="c" x="482" y="2" rx="2" ry="2"/><rect class="c" x="482" y="18" rx="2" ry="2"/><rect class="c" x="482" y="34" rx="2" ry="2"/><rect class="c" x="482" y="50" rx="2" ry="2"/><rect class="c c18" x="482" y="66" rx="2" ry="2"/><rect class="c" x="482" y="82" rx="2" ry="2"/><rect class="c" x="482" y="98" rx="2" ry="2"/><rect class="c" x="498" y="2" rx="2" ry="2"/><rect class="c" x="498" y="18" rx="2" ry="2"/><rect class="c c19" x="498" y="34" rx="2" ry="2"/><rect class="c" x="498" y="50" rx="2" ry="2"/><rect class="c" x="498" y="66" rx="2" ry="2"/><rect class="c" x="498" y="82" rx="2" ry="2"/><rect class="c" x="498" y="98" rx="2" ry="2"/><rect class="c" x="514" y="2" rx="2" ry="2"/><rect class="c c1a" x="514" y="18" rx="2" ry="2"/><rect class="c" x="514" y="34" rx="2" ry="2"/><rect class="c" x="514" y="50" rx="2" ry="2"/><rect class="c c1b" x="514" y="66" rx="2" ry="2"/><rect class="c" x="514" y="82" rx="2" ry="2"/><rect class="c" x="514" y="98" rx="2" ry="2"/><rect class="c" x="530" y="2" rx="2" ry="2"/><rect class="c" x="530" y="18" rx="2" ry="2"/><rect class="c" x="530" y="34" rx="2" ry="2"/><rect class="c" x="530" y="50" rx="2" ry="2"/><rect class="c" x="530" y="66" rx="2" ry="2"/><rect class="c" x="530" y="82" rx="2" ry="2"/><rect class="c" x="530" y="98" rx="2" ry="2"/><rect class="c" x="546" y="2" rx="2" ry="2"/><rect class="c" x="546" y="18" rx="2" ry="2"/><rect class="c" x="546" y="34" rx="2" ry="2"/><rect class="c" x="546" y="50" rx="2" ry="2"/><rect class="c" x="546" y="66" rx="2" ry="2"/><rect class="c" x="546" y="82" rx="2" ry="2"/><rect class="c" x="546" y="98" rx="2" ry="2"/><rect class="c" x="562" y="2" rx="2" ry="2"/><rect class="c c1c" x="562" y="18" rx="2" ry="2"/><rect class="c" x="562" y="34" rx="2" ry="2"/><rect class="c" x="562" y="50" rx="2" ry="2"/><rect class="c" x="562" y="66" rx="2" ry="2"/><rect class="c c1d" x="562" y="82" rx="2" ry="2"/><rect class="c c1e" x="562" y="98" rx="2" ry="2"/><rect class="c" x="578" y="2" rx="2" ry="2"/><rect class="c" x="578" y="18" rx="2" ry="2"/><rect class="c" x="578" y="34" rx="2" ry="2"/><rect class="c" x="578" y="50" rx="2" ry="2"/><rect class="c c1f" x="578" y="66" rx="2" ry="2"/><rect class="c c1g" x="578" y="82" rx="2" ry="2"/><rect class="c c1h" x="578" y="98" rx="2" ry="2"/><rect class="c c1i" x="594" y="2" rx="2" ry="2"/><rect class="c" x="594" y="18" rx="2" ry="2"/><rect class="c" x="594" y="34" rx="2" ry="2"/><rect class="c" x="594" y="50" rx="2" ry="2"/><rect class="c" x="594" y="66" rx="2" ry="2"/><rect class="c c1j" x="594" y="82" rx="2" ry="2"/><rect class="c" x="594" y="98" rx="2" ry="2"/><rect class="c c1k" x="610" y="2" rx="2" ry="2"/><rect class="c" x="610" y="18" rx="2" ry="2"/><rect class="c" x="610" y="34" rx="2" ry="2"/><rect class="c" x="610" y="50" rx="2" ry="2"/><rect class="c" x="610" y="66" rx="2" ry="2"/><rect class="c" x="610" y="82" rx="2" ry="2"/><rect class="c" x="610" y="98" rx="2" ry="2"/><rect class="c" x="626" y="2" rx="2" ry="2"/><rect class="c" x="626" y="18" rx="2" ry="2"/><rect class="c" x="626" y="34" rx="2" ry="2"/><rect class="c" x="626" y="50" rx="2" ry="2"/><rect class="c" x="626" y="66" rx="2" ry="2"/><rect class="c" x="626" y="82" rx="2" ry="2"/><rect class="c" x="626" y="98" rx="2" ry="2"/><rect class="c" x="642" y="2" rx="2" ry="2"/><rect class="c" x="642" y="18" rx="2" ry="2"/><rect class="c" x="642" y="34" rx="2" ry="2"/><rect class="c" x="642" y="50" rx="2" ry="2"/><rect class="c" x="642" y="66" rx="2" ry="2"/><rect class="c" x="642" y="82" rx="2" ry="2"/><rect class="c" x="642" y="98" rx="2" ry="2"/><rect class="c" x="658" y="2" rx="2" ry="2"/><rect class="c" x="658" y="18" rx="2" ry="2"/><rect class="c" x="658" y="34" rx="2" ry="2"/><rect class="c" x="658" y="50" rx="2" ry="2"/><rect class="c" x="658" y="66" rx="2" ry="2"/><rect class="c" x="658" y="82" rx="2" ry="2"/><rect class="c" x="658" y="98" rx="2" ry="2"/><rect class="c" x="674" y="2" rx="2" ry="2"/><rect class="c" x="674" y="18" rx="2" ry="2"/><rect class="c" x="674" y="34" rx="2" ry="2"/><rect class="c" x="674" y="50" rx="2" ry="2"/><rect class="c" x="674" y="66" rx="2" ry="2"/><rect class="c" x="674" y="82" rx="2" ry="2"/><rect class="c" x="674" y="98" rx="2" ry="2"/><rect class="c" x="690" y="2" rx="2" ry="2"/><rect class="c" x="690" y="18" rx="2" ry="2"/><rect class="c" x="690" y="34" rx="2" ry="2"/><rect class="c" x="690" y="50" rx="2" ry="2"/><rect class="c" x="690" y="66" rx="2" ry="2"/><rect class="c" x="690" y="82" rx="2" ry="2"/><rect class="c" x="690" y="98" rx="2" ry="2"/><rect class="c" x="706" y="2" rx="2" ry="2"/><rect class="c" x="706" y="18" rx="2" ry="2"/><rect class="c" x="706" y="34" rx="2" ry="2"/><rect class="c" x="706" y="50" rx="2" ry="2"/><rect class="c" x="706" y="66" rx="2" ry="2"/><rect class="c" x="706" y="82" rx="2" ry="2"/><rect class="c" x="706" y="98" rx="2" ry="2"/><rect class="c" x="722" y="2" rx="2" ry="2"/><rect class="c" x="722" y="18" rx="2" ry="2"/><rect class="c" x="722" y="34" rx="2" ry="2"/><rect class="c" x="722" y="50" rx="2" ry="2"/><rect class="c" x="722" y="66" rx="2" ry="2"/><rect class="c" x="722" y="82" rx="2" ry="2"/><rect class="c" x="722" y="98" rx="2" ry="2"/><rect class="c" x="738" y="2" rx="2" ry="2"/><rect class="c" x="738" y="18" rx="2" ry="2"/><rect class="c" x="738" y="34" rx="2" ry="2"/><rect class="c" x="738" y="50" rx="2" ry="2"/><rect class="c" x="738" y="66" rx="2" ry="2"/><rect class="c" x="738" y="82" rx="2" ry="2"/><rect class="c" x="738" y="98" rx="2" ry="2"/><rect class="c" x="754" y="2" rx="2" ry="2"/><rect class="c" x="754" y="18" rx="2" ry="2"/><rect class="c" x="754" y="34" rx="2" ry="2"/><rect class="c" x="754" y="50" rx="2" ry="2"/><rect class="c" x="754" y="66" rx="2" ry="2"/><rect class="c" x="754" y="82" rx="2" ry="2"/><rect class="c" x="754" y="98" rx="2" ry="2"/><rect class="c" x="770" y="2" rx="2" ry="2"/><rect class="c" x="770" y="18" rx="2" ry="2"/><rect class="c" x="770" y="34" rx="2" ry="2"/><rect class="c" x="770" y="50" rx="2" ry="2"/><rect class="c" x="770" y="66" rx="2" ry="2"/><rect class="c" x="770" y="82" rx="2" ry="2"/><rect class="c" x="770" y="98" rx="2" ry="2"/><rect class="c" x="786" y="2" rx="2" ry="2"/><rect class="c" x="786" y="18" rx="2" ry="2"/><rect class="c" x="786" y="34" rx="2" ry="2"/><rect class="c" x="786" y="50" rx="2" ry="2"/><rect class="c" x="786" y="66" rx="2" ry="2"/><rect class="c" x="786" y="82" rx="2" ry="2"/><rect class="c" x="786" y="98" rx="2" ry="2"/><rect class="c" x="802" y="2" rx="2" ry="2"/><rect class="c" x="802" y="18" rx="2" ry="2"/><rect class="c" x="802" y="34" rx="2" ry="2"/><rect class="c" x="802" y="50" rx="2" ry="2"/><rect class="c" x="802" y="66" rx="2" ry="2"/><rect class="c" x="802" y="82" rx="2" ry="2"/><rect class="c" x="802" y="98" rx="2" ry="2"/><rect class="c" x="818" y="2" rx="2" ry="2"/><rect class="c" x="818" y="18" rx="2" ry="2"/><rect class="c c1l" x="818" y="34" rx="2" ry="2"/><rect class="c" x="818" y="50" rx="2" ry="2"/><rect class="c" x="818" y="66" rx="2" ry="2"/><rect class="c" x="818" y="82" rx="2" ry="2"/><rect class="c" x="818" y="98" rx="2" ry="2"/><rect class="c" x="834" y="2" rx="2" ry="2"/><rect class="c" x="834" y="18" rx="2" ry="2"/><rect class="c" x="834" y="34" rx="2" ry="2"/><rect class="c c1m" x="834" y="50" rx="2" ry="2"/><rect class="c" x="834" y="66" rx="2" ry="2"/><rect class="c" x="834" y="82" rx="2" ry="2"/><rect class="c" x="834" y="98" rx="2" ry="2"/><rect class="u u0" height="12" width="575.5" x="0.0" y="144"/><rect class="u u1" height="12" width="187.4" x="574.9" y="144"/><rect class="u u2" height="12" width="29.3" x="761.8" y="144"/><rect class="u u3" height="12" width="58.1" x="790.5" y="144"/><rect class="s s0" x="0.8" y="0.8" width="14.4" height="14.4" rx="4.5" ry="4.5"/><rect class="s s1" x="1.8" y="1.8" width="12.3" height="12.3" rx="4.1" ry="4.1"/><rect class="s s2" x="2.6" y="2.6" width="10.8" height="10.8" rx="3.6" ry="3.6"/><rect class="s s3" x="3.0" y="3.0" width="9.9" height="9.9" rx="3.3" ry="3.3"/></svg>